<svg xmlns="http://www.w3.org/2000/svg" width="870.75" height="130.19" viewBox="0 0 696.6 104.152" xmlnsV="https://vecta.io/nano"><path d="M345.606 22.271c-.513 5.041-.738 14.164-.738 26.187 0 10.441-.169 23.531.738 32.884-2.614-.233-4.071-.158-6.603-.158-2.456 0-4.726-.075-7.25.158.812-9.74.654-19.264.654-29.296 0-3.828-.064-8.364-.243-11.472-11.479 13.097-22.539 27.033-33.205 40.768h-7.325l.813-29.296c0-11.135-.169-21.246-.889-29.775l7.071.24 6.839-.24c-.813 8.861-.737 18.725-.737 29.703v11.479c12.059-12.946 23.613-26.707 33.702-40.942l6.435-.24h.738zm-165.214 4.228h0l.411-4.228-3.68.164h-4.047l-5.707-.164.488 5.937-.076 12.13c-.085 12.783-7.39 12.783-11.78 12.783-7.519 0-11.496-6.853-11.657-19.536l.132-7.175.25-4.139-6.147.236-7.322-.236.458 17.022c.662 15.277 13.441 19.842 20.692 19.842 5.371 0 11.618-1.64 15.213-3.673l-.164 10.04-.33 10.573-.25 5.267 7.425-.158 6.502.158-.569-5.267-.161-10.573.064-20.535.255-18.468zm225.745 1.15h0l.308-5.378-6.67.236-7.183-.236.429 5.442.255 6.917v7.477l.072 3.526-5.36.398c-2.131.172-4.645.237-7.484.237-3.025 0-5.556-.065-7.902-.237l-5.689-.398v-3.526l.233-7.477.161-6.917.325-5.442-6.91.236-6.924-.236.329 5.378c.158 2.506.215 7.075.215 13.735l.082 8.793-.139 13.685-.419 12.044-.068 5.436 6.663-.158 7.171.158-.325-5.342c-.244-3.509-.394-7.079-.394-10.763V53.435l5.353-.477c1.636-.085 4.221-.174 7.727-.174l7.658.337 5.697.314-.072 4.25-.168 7.645-.244 10.265-.272 5.747 7.344-.158 6.509.158-.308-5.984-.272-12.091-.064-13.09v-8.793l.336-13.735zm-187.381-5.378h0c-2.531.164-6.688.24-12.441.24-3.936 0-6.671-.076-8.389-.165l-7.259-.483.409 4.382.254 7.416v9.198l.065 15.639-.065 10.82c0 3.173-.104 5.919-.254 8.196l-.409 4.336 7.259-.602 10.404-.064 9.771.329 5.557.337-.157-3.831.157-3.895-5.865.386c-3.355.251-6.455.351-9.213.351l-4.725-.1V54.094l4.876-.082 9.191.308 5.138.429-.251-3.828.251-3.909-4.884.322c-3.007.25-6.108.344-9.276.344l-5.045-.094V28.852l4.569.082 10.079.333 5.155.322-.157-4.003.157-3.723-4.902.408zm39.075.308h0c-1.312 0-2.768-.144-3.664-.387-7.304 20.344-15.879 39.636-24.257 59.415 1.063-.265 2.602-.423 3.913-.423 1.389 0 3.166.254 4.082.423 4.697-14.395 10.405-28.734 16.344-43.152 5.131 14.503 11.154 28.757 15.472 43.152 1.869-.265 5.052-.423 7.555-.423 2.624 0 5.202.158 7.669.423l-23.201-59.415c-1.318.243-2.617.387-3.913.387zM499.63 75.742h0c7.193 0 10.921-3.996 10.921-12.034 0-6.685-4.4-10.835-11.555-10.75l-2.849.242-.075 4.217v5.85l.075 6.703.254 5.435 3.229.337zm1.318-28.257h0c9.603 0 22.783 3.591 22.783 16.842 0 8.722-5.296 14.998-13.506 16.456-2.352.401-4.718.559-6.985.559l-6.682-.094-5.789-.064h-4.064l-3.663.158.412-4.212.082-7.239.057-11.163V32.819l-.139-6.08-.412-4.393 5.941.329 11.396.32 13.498-.079 5.961-.57-.329 3.352.329 3.412-5.961-.33c-3.176-.178-9.668-.265-13.591-.336h-4.139l.254 3.662-.168 4.891v10.587l4.715-.099zm139.736-19.836h0l.343-5.378-6.688.236-7.183-.236.43 5.442.244 6.917v7.477l.064 3.526-5.342.398c-2.142.172-4.645.237-7.502.237-3.025 0-5.528-.065-7.901-.237l-5.689-.398v-3.526l.25-7.477.132-6.917.337-5.442-6.915.236-6.92-.236.336 5.378c.151 2.506.243 7.075.243 13.735l.076 8.793-.168 13.685-.401 12.044-.086 5.436 6.689-.158 7.146.158-.337-5.342c-.233-3.509-.382-7.079-.382-10.763V53.435l5.37-.477c1.625-.085 4.243-.174 7.734-.174l7.651.337 5.679.314-.064 4.25-.151 7.645-.261 10.265-.262 5.747 7.351-.158 6.52.158-.343-5.984-.245-12.091-.092-13.09v-8.793l.337-13.735zm52.421 49.059h0l-6.037-8.786-9.105-13.24-4.952-7.748 3.084-3.681 8.134-9.024 6.427-6.917 4.97-5.041-5.783.236-5.453-.236-3.251 4.783c-1.719 2.535-4.232 5.693-7.49 9.618l-5.446 6.752-5.138 5.697v-5.868l.325-9.668.094-6.603.307-4.711-6.903.236-6.863-.236.25 4.641.158 6.598.189 10.087-.086 16.841-.103 8.394-.158 7.389-.25 5.121 7.182-.158 6.584.158-.401-5.193c-.243-2.212-.325-4.725-.325-7.562v-8.149l.082-5.689 3.756 5.689 5.191 8.149c2.439 3.653 4.15 6.442 5.225 8.208l2.589 4.547 8.478-.158 8.214.158-3.495-4.634zm-137.49-18.625h0l2.764-.398-1.375-3.365-4.25-10.495-1.952-4.873-2.019 4.873-4.146 10.495-1.393 3.365 2.936.301c1.51.19 3.229.257 5.117.257 1.618 0 3.008 0 4.318-.16zm23.259 16.946h0l3.107 6.313-8.246-.158-7.146.158-1.719-5.747-2.681-7.43-1.204-3.734-4.569-.498c-1.375-.071-3.429-.165-5.771-.165-2.385 0-4.243 0-5.626.165l-4.388.498-1.375 3.648c-.82 2.292-1.644 4.827-2.457 7.326l-1.708 5.937-4.382-.158-4.662.158 3.094-6.167c4.894-10.579 10.021-22.527 15.496-36.155l4.222-10.992 2.037-5.757 3 .236 3.734-.236 2.138 5.757 3.971 10.856c5.13 13.477 10.194 25.547 15.135 36.145zm-139.828.813h0 16.28c-2.532-8.085-6.033-18.157-10.685-30.209l-2.738-7.25-2.857 7.25c-5.372 13.903-9.024 23.833-10.817 29.962h.326l10.491.247zm30.358-.659h0l7.473-.913-.72 3.749-.372 4.264-23.718-1.035h-4.475-9.854l-23.688 1.035-.394-4.264-.749-3.749 7.495.913 5.145-11.916c2.682-6.244 5.417-13.305 8.539-21.464l5.121-14.09 2.026-5.442 3.584.164 4.4-.164 1.962 5.614 5.057 13.742 8.263 21.573 4.905 11.983zM52.063 0C23.305 0 0 23.345 0 52.089c0 28.758 23.305 52.063 52.063 52.063 28.734 0 52.057-23.305 52.057-52.063C104.12 23.345 80.797 0 52.063 0zm5.651 100.999h0l7.361-17.648h-8.761c-4.483 0-6.027-3.227-4.97-6.098L63.74 46.486s1.138-2.346-.917-3.499c-2.23-1.263-3.426 1.053-3.426 1.053L36.771 79.716c-.627 1.053-2.717 3.673-6.097 2.163-3.394-1.533-2.32-5.056-2.066-5.618L40.47 48.029s1.207-2.725-.064-4.756c-1.178-1.896-2.597-2.104-3.989-2.161h-6.38l-8.804 20.816.176-30.975L46.926 1.576l-8.203 19.613h10.1c1.476 0 2.868.76 3.653 2.031.744 1.207.934 2.864.128 4.78L39.919 58.76c-.401.905-.559 2.61 1.253 3.425 1.801.886 3.018-.586 3.222-.977L66.55 25.26c1.504-2.466 3.709-3.87 6.363-2.599 3.176 1.529 2.392 4.702 2.037 5.753L63.676 56.722c-2.339 5.765 2.212 6.731 4.202 6.731h5.25l8.622-21.095.633 31.464-24.669 27.177z" fill="#00609d"/></svg>