<svg xmlns="http://www.w3.org/2000/svg" viewBox="0 0 180 33"  xmlnsV="https://vecta.io/nano"><path d="M26.55,6.58h6.61v6.58H26.55Z" fill="#8dc540"/><path d="M26.55,19.79h6.61v6.58H26.55Z" fill="#d6df26"/><path d="M26.55,26.42h6.61V33H26.55Z" fill="#00aeef"/><path d="M19.89,0h6.62V6.58H19.89Z" fill="#7ed2f6"/><path d="M19.89,6.58h6.62v6.58H19.89Z" fill="#00aeef"/><path d="M19.89,13.21h6.62v6.58H19.89Z" fill="#7ed2f6"/><path d="M13.28,0h6.62V6.58H13.28Z" fill="#1b476a"/><path d="M13.28,13.21h6.62v6.58H13.28Z" fill="#d6df26"/><path d="M13.28,26.42h6.62V33H13.28ZM6.61,6.58h6.61v6.58H6.61Z" fill="#8dc540"/><path d="M6.61,13.21h6.61v6.58H6.61Z" fill="#7ed2f6"/><path d="M6.61,19.79h6.61v6.58H6.61Z" fill="#00aeef"/><path d="M0,0H6.61V6.58H0Z" fill="#7ed2f6"/><path d="M0,6.58H6.61v6.58H0Z" fill="#d6df26"/><path d="M0,19.79H6.61v6.58H0Z" fill="#1b476a"/><path d="M0,26.42H6.61V33H0Z" fill="#7ed2f6"/><path d="M75.46 26.69c-4.32 0-6.7-3.31-6.7-7.7s2.39-7.66 6.7-7.66 6.7 3.27 6.7 7.66-2.38 7.7-6.7 7.7zm0-12.4c-2 0-3 1.79-3 4.75s1 4.7 3 4.7 3-1.75 3-4.7-1.01-4.76-3-4.76zm16.25 12.4c-4.77 0-7.38-2.82-7.38-7.61 0-4.52 2.39-7.61 6.93-7.61a6.8 6.8 0 0 1 2.11.31V5h3.78v20.66a13.77 13.77 0 0 1-5.45 1zm1.62-12.09a5.45 5.45 0 0 0-1.71-.27c-2.34 0-3.55 1.93-3.55 4.75s1.26 4.75 3.55 4.75a4 4 0 0 0 1.71-.31zm13.32 12.09c-4.1 0-6.21-1.61-6.21-5.46v-9.59h3.74v9.67c0 1.57.85 2.33 2.52 2.33a6.09 6.09 0 0 0 2.16-.31V11.69h3.74v14a15.54 15.54 0 0 1-5.94 1zm9.27-.31V5h3.73v21.42h-3.73zm13.14.27a10.5 10.5 0 0 1-4.41-1V5h1.62v7.16a8 8 0 0 1 3.33-.67c3.78 0 6.39 2.82 6.39 7.34 0 5.55-3.06 7.84-6.93 7.84zm.36-13.84a7.43 7.43 0 0 0-3.15.67v11.33a7.27 7.27 0 0 0 2.83.58c2.88 0 5.22-1.75 5.22-6.45 0-3.85-2.02-6.13-4.9-6.13zm15.17 13.84c-3.87 0-5.85-1.7-5.85-4.39 0-4.3 4.72-4.84 9.18-5.1V15.9c0-2.51-1.67-3.22-3.87-3.22a9.55 9.55 0 0 0-4 .94l-.5-1.21a11.17 11.17 0 0 1 4.55-1c3.1 0 5.31 1.25 5.31 4.61v9.63a11.6 11.6 0 0 1-4.83.99zm3.33-8.24c-3.55.18-7.65.36-7.65 3.85 0 1.88 1.4 3.13 4.23 3.13a10.36 10.36 0 0 0 3.38-.54V18.4zm15 8v-10c0-2.19-1.35-3.63-4.05-3.63a10.54 10.54 0 0 0-3.6.58v13.01h-1.62v-14a13.54 13.54 0 0 1 5.22-1c3.65 0 5.63 1.84 5.63 4.88v10.17h-1.57zm15 0l-7.47-7.61v7.61h-1.57V5h1.57v13.58l7.11-6.9h2l-7.24 7 7.68 7.69zM64.3 6.63h-4.41l-4 14.06-4-14.06h-5.45v19.74h3.78V11.1l4.46 15.27h2.48l4.4-15.27v15.27h3.78V6.63z" fill="#1b476a"/></svg>