<svg xmlns="http://www.w3.org/2000/svg" width="200" height="50" fill="none"  fill-rule="evenodd" xmlnsV="https://vecta.io/nano"><path d="M47.764 13.071c-2.695-.968-8.352-1.668-14.786-1.668-6.466 0-12.114.678-14.796 1.689C21.663 8.787 27.008 6 32.979 6c5.949 0 11.294 2.766 14.786 7.071zM52 24.059C49.736 22.573 42 21.432 32.979 21.432c-9.042 0-16.694 1.141-18.979 2.627.189-3.207 1.162-6.318 2.835-9.061 1.519 1.377 8.19 2.368 16.145 2.368s14.624-.99 16.176-2.357A19.18 19.18 0 0 1 52 24.059zm-4.321 12.945c-2.706.979-8.309 1.659-14.678 1.659-6.391 0-11.93-.679-14.668-1.636C21.847 41.255 27.117 44 33.001 44c5.905 0 11.186-2.745 14.678-6.996zm1.433-1.991c-1.585-1.344-8.277-2.343-16.111-2.343-7.878 0-14.528.999-16.123 2.343-1.66-2.646-2.706-5.735-2.867-9.017 2.349 1.496 9.969 2.615 18.968 2.615 8.944 0 16.596-1.119 18.979-2.637-.151 3.281-1.218 6.37-2.845 9.039z" fill="#ed6708"/><path d="M177.067 22.176h-3.527v12.239h3.521v-5.181h.32l4.394 5.181h3.842l-5.706-6.321 5.229-5.918h-3.584l-4.194 4.761h-.32l.025-4.76zm-15.988 0h-3.522v12.239h3.522v-5.181h6.685v5.181h3.516V22.176h-3.516v4.513h-6.685v-4.513zm-48.43 9.15h-8.525c.904-1.269 1.256-1.74 1.256-3.442v-8.289h7.269v11.731zm5.392 0h-1.626V16.468h-14.632v10.629c0 2.204-.502 2.885-1.883 4.197h-1.883v3.095h19.994l.031-3.064zm-32.924-4.748h5.832c1.946 0 2.153.557 2.153 1.739v1.319c0 1.275-.326 1.69-2.291 1.69h-5.693v-4.748zM81.35 16.499v17.915h9.918c3.704 0 5.562-.916 5.593-4.742v-1.306c0-3.962-1.971-4.872-5.687-4.872h-6.058v-4.067h10.188v-2.928H81.35zm46.804 10.078h5.838c1.946 0 2.153.557 2.153 1.739v1.319c0 1.275-.32 1.69-2.285 1.69h-5.7l-.006-4.748zm-3.766-10.078v17.915h9.912c3.71 0 5.568-.916 5.599-4.742v-1.306c0-3.962-1.965-4.872-5.693-4.872h-6.058v-4.067h10.188v-2.928h-13.948zm-58.487 0h-3.766v17.915h3.766v-7.682h8.939v7.682h3.766V16.499H74.84v7.15h-8.939v-7.15zm84.575 5.677h-4.25c-3.54 0-4.538 1.387-4.538 3.201h3.339c.189-.619.434-.898 1.72-.898h2.938c1.432 0 2.059.21 2.059 1.331v2.334c-.195-.367-.499-.666-.872-.858s-.795-.266-1.212-.213h-3.496c-3.509 0-4.526 1.09-4.526 2.922v1.597c0 1.925 1.469 2.817 3.766 2.817h3.974c1.362 0 1.751-.421 2.379-1.238v1.238h3.521V26.46c0-2.148-1.224-4.284-4.758-4.284h-.044zm1.3 8.704c0 .922-.452 1.238-1.833 1.238h-3.064c-1.362 0-1.789-.334-1.789-1.238v-.353c.032-.885.515-1.164 1.789-1.164h3.064c1.33 0 1.808.347 1.833 1.176v.34z" fill="#0056a4"/></svg>