<svg xmlns="http://www.w3.org/2000/svg" width="145.653" height="43.478"  xmlnsV="https://vecta.io/nano"><path fill="#010101" d="M5.215 6.813h28.661V35.48H5.215z"/><path fill="#fdec0a" d="M6.046 7.637h27.002v27.01H6.046z"/><path d="M7.474 29.194l3.527 3.594 8.251-8.381 8.528 8.552 3.577-3.54-8.443-8.444 1.621-1.572v-3.351l1.022-.864v2.627l1.307 1.068 3.926-3.921 1.26.97c.738-2.746-3.558-8.98-7.118-5.525l-4.143 4.11.847 1.015-2.107 2.059-2.038-2.01 1.067-.961-4.538-4.388C10.602 7.415 7.099 11.7 6.979 15.88l1.241-1.037 3.816 4.11 1.363-1.139v-2.522l.848.639v3.297l1.659 1.659-8.432 8.307zM125.269 13.59h3.254c-.14-.769-.829-1.272-1.583-1.272-.823 0-1.5.44-1.671 1.272m5.868 1.349v.295h-5.918c0 1.162.611 1.786 1.765 1.786.597 0 1.034-.208 1.349-.742h2.696c-.444 1.908-2.226 2.764-4.026 2.764-2.633 0-4.584-1.506-4.584-4.275 0-2.691 1.808-4.293 4.377-4.293 2.749.001 4.341 1.721 4.341 4.465m-78.097-2.16c-1.146 0-1.805.831-1.805 1.815 0 1.016.659 1.809 1.805 1.809 1.137 0 1.812-.793 1.812-1.809 0-.984-.675-1.815-1.812-1.815m4.525-2.211v8.035h-2.809v-.891h-.03c-.494.796-1.461 1.161-2.394 1.161-2.347 0-3.999-1.997-3.999-4.293 0-2.304 1.624-4.274 3.96-4.274.912 0 1.878.344 2.463 1.046v-.784h2.809zm41.122 2.211c-1.146 0-1.804.831-1.804 1.815 0 1.016.658 1.809 1.804 1.809 1.139 0 1.807-.793 1.807-1.809 0-.984-.668-1.815-1.807-1.815m4.519-2.211v8.035h-2.805v-.891h-.025c-.504.796-1.47 1.161-2.4 1.161-2.348 0-3.995-1.997-3.995-4.293 0-2.304 1.614-4.274 3.96-4.274.918 0 1.881.344 2.461 1.046v-.784h2.804zm-64.113 8.036V6.797h4.749c3.201 0 4.105 2.285 4.105 3.886 0 1.609-.92 3.907-4.105 3.907h-1.726v4.013h-3.023zm3.023-9.25v2.675h1.026c1.409 0 1.552-.848 1.552-1.345 0-.584-.198-1.33-1.552-1.33h-1.026zm17.204 1.229v8.021h2.738l2.78-4.418v4.418h2.82v-8.021h-2.706l-2.819 4.306v-4.306H59.32zm4.39-1.043c1.277 0 2.594-.497 3.175-1.866l-1.835-.697c-.221.929-1.018.983-1.34.983-.317 0-1.11-.054-1.333-.983l-1.83.697c.573 1.368 1.897 1.866 3.163 1.866m9.731 12.56v-3.372c-1.68.015-4.443-.668-4.443-4.138 0-3.459 2.748-4.142 4.443-4.121V6.977h2.813v3.493c1.692-.021 4.446.662 4.446 4.121 0 3.47-2.766 4.153-4.446 4.138V22.1h-2.813zm2.64-9.671v4.448c.945.018 1.916-.694 1.916-2.221s-.971-2.245-1.916-2.227m-2.462 4.447v-4.448c-.955-.018-1.924.695-1.924 2.227s.969 2.24 1.924 2.221M86.11 22.1v-3.372c-1.674.015-4.441-.668-4.441-4.138 0-3.459 2.756-4.142 4.441-4.121V6.977h2.82v3.493c1.688-.021 4.441.662 4.441 4.121 0 3.47-2.771 4.153-4.441 4.138V22.1h-2.82zm2.637-9.671v4.448c.95.018 1.913-.694 1.913-2.221s-.963-2.245-1.913-2.227m-2.459 4.447v-4.448c-.951-.018-1.918.695-1.918 2.227s.966 2.24 1.918 2.221m18.677-6.293v8.025h2.733l2.786-4.422v4.422h2.816v-8.025h-2.707l-2.814 4.306v-4.306h-2.814zm4.388-1.043c1.276 0 2.594-.497 3.181-1.866l-1.846-.697c-.215.929-1.006.983-1.335.983-.318 0-1.106-.054-1.332-.983l-1.836.697c.577 1.368 1.901 1.866 3.168 1.866m6.103 3.341c.6-.403 1.404-.691 2.096-.691.35 0 1.123.053 1.123.739 0 .662-.678.677-.957.677h-1.381v1.739h1.228c.403 0 1.163.039 1.163.681 0 .272-.168.786-1.143.786-.99 0-1.615-.273-2.436-.761l-.729 1.889c1.549.885 2.953.97 3.586.97 3.228 0 3.625-1.865 3.625-2.477 0-.85-.496-1.711-1.623-1.98v-.036c.707-.309 1.164-1.016 1.164-1.873 0-1.879-1.987-2.256-3.192-2.256-1.12 0-2.433.329-3.279.791l.755 1.802zm17.067 5.726h2.817v-3.209h2.586v3.209h2.82v-8.025h-2.82v2.819h-2.586v-2.819h-2.817v8.025zm-83.062 4.946l-.556 2.624h-4.753l-.349 1.642h1.752c.903 0 1.642.146 2.207.439.571.289.957.72 1.16 1.302s.217 1.298.034 2.144c-.167.805-.494 1.496-.98 2.057a4.45 4.45 0 0 1-1.791 1.279c-.717.281-1.5.426-2.364.426h-4.737l2.529-11.912h7.848zm-6.75 9.414h.521c.543 0 .971-.021 1.286-.069s.589-.171.825-.364.407-.502.494-.922c.085-.404.052-.703-.102-.889s-.383-.299-.678-.346c-.292-.041-.714-.063-1.266-.063h-.519l-.561 2.653zm10.674.426l-1.261 2.072h-3.29l7.11-11.912h3.379l1.958 11.912h-3.303l-.332-2.072h-4.261zm3.468-6.161h-.028l-2.089 3.793h2.576l-.459-3.793zm14.902.918l.977-4.596h3.097l-2.533 11.911h-3.094l1.036-4.882h-4.467l-1.036 4.882h-3.096l2.531-11.911h3.094l-.976 4.596zm13.354-4.597h3.839l-5.936 5.641 3.832 6.271h-4.013l-2.898-5.164h-.026l-1.104 5.164h-3.092l2.532-11.912h3.095l-1.041 4.912h.031z" fill="#010101"/></svg>