<svg xmlns="http://www.w3.org/2000/svg" width="200" height="50" fill="none"  xmlnsV="https://vecta.io/nano"><path d="M72.3 10.4c2.7 0 4.5 1.8 4.5 4.3 0 2.6-1.7 4.1-4.5 4.1h-5.4V23h-2.3V10.4h7.7zm.1 6.2c1.2 0 2-.8 2-2s-.8-2.2-2.1-2.2h-5.4v4.2h5.5zm12.9 6.6c-4 0-7.3-2.7-7.3-6.6s3.3-6.6 7.3-6.6 7.3 2.7 7.3 6.6c0 4-3.3 6.6-7.3 6.6zm0-11.1c-2.9 0-4.9 2-4.9 4.5 0 2.6 1.9 4.5 4.9 4.5s4.9-1.9 4.9-4.5c0-2.5-1.9-4.5-4.9-4.5zm16.9 11.1c-4.2 0-7.3-2.7-7.3-6.6s3.2-6.6 7.3-6.6c2.5 0 4.2.7 5.8 1.9l-1.2 1.8a7.15 7.15 0 0 0-4.5-1.5c-3.1 0-5 1.9-5 4.4 0 2.6 1.9 4.5 5 4.5 1.9 0 3.4-.6 4.6-1.5l1.2 1.8c-1.5 1.2-3.4 1.8-5.9 1.8zm26-3.4l-1.4 3h-2.5l6.1-12.5h2.4l6.1 12.5h-2.5l-1.4-3h-6.8zm1-2h4.8l-2.4-5.1-2.4 5.1zm22 5.1v-5.4H143v5.4h-2.3V10.4h2.3v5.1h8.2v-5.1h2.3v12.5h-2.3zm5.7 0V10.4h2.4v5.8l6.3-5.8h2.8l-6.5 6 6.8 6.5h-3.1l-6.3-6.1v6.1h-2.4zM118.5 15h-5.4v-2.7h9v-2h-11.3v12.5h7.8c2.7 0 4.6-1.5 4.6-4-.1-2.5-1.9-3.8-4.7-3.8zm.2 5.8h-5.6V17h5.6c1.5 0 2.3.8 2.3 1.9-.1 1.2-.7 1.9-2.3 1.9zm-10.4 22.9v.1c0 .7-.2 1.3-.6 1.7s-1 .7-1.6.7-1.1-.2-1.5-.6c-.5-.4-.7-1-.7-1.7s.2-1.3.7-1.7c.4-.4 1-.6 1.6-.6.8 0 1.4.3 1.9 1l-.8.4c-.4-.4-.8-.6-1.3-.6s-.8.1-1.1.4-.4.7-.4 1.1c0 .5.1.8.4 1.1s.7.4 1.1.4c.7 0 1.2-.3 1.4-1h-1.6v-.8h2.5v.1zm5 2.3h-.8l-.9-1.6h-1.7V46h-.7v-4.3h2.8c.4 0 .7.1.9.4.2.2.3.6.3 1 0 .7-.3 1.2-.9 1.3l1 1.6zm-1.3-2.3c.4 0 .6-.2.6-.6s-.2-.6-.7-.6h-2v1.2h2.1zm6.6.2c0 .7-.2 1.3-.7 1.7-.4.4-.9.6-1.5.6s-1.1-.2-1.6-.6-.7-1-.7-1.7.2-1.3.7-1.7c.4-.4.9-.6 1.5-.6s1.1.2 1.5.6c.6.4.8 1 .8 1.7zm-.7 0c0-.4-.1-.8-.4-1.1s-.7-.4-1.1-.4c-.5 0-.8.1-1.1.4s-.4.7-.4 1.1c0 .5.1.8.4 1.1s.7.4 1.2.4.9-.1 1.1-.4.3-.7.3-1.1zm5.7.7c0 .5-.2.8-.5 1.1-.4.3-.9.4-1.5.4s-1.1-.1-1.5-.4-.5-.7-.5-1.1v-2.9h.7v2.7c0 .6.4 1 1.3 1s1.3-.3 1.3-1v-2.7h.7v2.9zm4-2.9c.4 0 .7.1.9.4.2.2.3.6.3 1s-.1.8-.3 1a1.53 1.53 0 0 1-1 .4h-2V46h-.7v-4.3h2.8zm-.2 2c.4 0 .6-.2.6-.6s-.2-.6-.7-.6h-2v1.2h2.1zm-92.6-.9c-.5-.3-.9-.4-1.5-.4-.8 0-1.2.2-1.2.5 0 .2.1.3.4.4.4 0 .8.1 1.2.1.6.1 1 .2 1.2.4.3.2.4.5.4.9 0 .5-.2.8-.5 1.1s-.8.4-1.4.4c-.9 0-1.6-.3-2.1-.8l.4-.6c.5.4 1.1.6 1.8.6.4 0 .7-.1.9-.2a.55.55 0 0 0 .3-.5c0-.2-.1-.4-.4-.5-.1-.1-.4-.1-.7-.1-.5 0-.8 0-.9-.1-.4-.1-.7-.2-.9-.3-.2-.2-.3-.4-.3-.8s.2-.7.5-1c.3-.2.8-.4 1.4-.4.8 0 1.4.2 1.9.6l-.5.7zm5.8 1.1c0 .7-.2 1.3-.7 1.7-.4.4-.9.6-1.5.6s-1.1-.2-1.6-.6-.7-1-.7-1.7.2-1.3.7-1.7c.4-.4.9-.6 1.5-.6s1.1.2 1.5.6c.5.4.8 1 .8 1.7zm-.7 0c0-.4-.1-.8-.4-1.1s-.7-.4-1.1-.4c-.5 0-.8.1-1.1.4s-.4.7-.4 1.1c0 .5.1.8.4 1.1s.7.4 1.2.4.9-.1 1.1-.4c.1-.3.3-.7.3-1.1zm5.8-1.2l-.6.3c-.4-.5-.8-.7-1.4-.7-.5 0-.9.1-1.2.4s-.5.7-.5 1.1c0 .5.1.8.4 1.1s.7.4 1.2.4c.6 0 1.1-.2 1.4-.7l.6.4c-.5.7-1.2 1.1-2 1.1a2.52 2.52 0 0 1-1.7-.6c-.4-.4-.6-1-.6-1.6 0-.7.2-1.3.7-1.7.4-.4.9-.6 1.5-.6 1 0 1.6.4 2.2 1.1zm1.6-1h-.7V46h.7v-4.3zm4.9 4.3h-3.7v-4.3h3.6v.8h-2.9v.9h2v.8h-2v1.1h3v.7zm4.4-3.5H55V46h-.7v-3.5h-1.7v-.8h4v.8zm4.5 3.5h-3.7v-4.3H61v.8h-3v.9h2.1v.8H58v1.1h3.1v.7zm6.9-2.3v.1c0 .7-.2 1.3-.6 1.7s-1 .7-1.6.7-1.1-.2-1.5-.6c-.5-.4-.7-1-.7-1.7s.2-1.3.7-1.7c.4-.4 1-.6 1.6-.6.8 0 1.4.3 1.9 1l-.8.4c-.4-.4-.8-.6-1.3-.6s-.8.1-1.1.4-.4.7-.4 1.1c0 .5.1.8.4 1.1s.7.4 1.1.4c.7 0 1.2-.3 1.4-1h-1.6v-.8H68v.1zm4.7 2.3h-3.8v-4.3h3.6v.8h-2.9v.9h2.1v.8h-2.1v1.1h3.1v.7zm4.9 0h-1l-2.4-3.6V46h-.7v-4.3h1.1l2.3 3.6v-3.6h.7V46zm4.9 0h-3.7v-4.3h3.6v.8h-3v.9h2.1v.8h-2.1v1.1h3.1v.7zm4.9 0h-.8l-.9-1.6H84V46h-.7v-4.3h2.8c.4 0 .7.1.9.4.2.2.3.6.3 1 0 .7-.3 1.2-.9 1.3l1 1.6zm-1.3-2.3c.4 0 .6-.2.6-.6s-.2-.6-.7-.6h-2v1.2h2.1zm6.4 2.3h-.7l-.4-.9H89l-.4.9h-.7l1.9-4.3h.8l1.9 4.3zM91 44.3l-.8-1.9-.8 1.9H91zm5.5 1.7h-3.3v-4.3h.6v3.6h2.7v.7zm4.5 0h-3.8v-4.3h3.6v.8h-2.9v.9h2v.8h-2v1.1h3.1v.7z" fill="#000"/><path d="M56.1 4H31V16.8H56.1V4Z" fill="#e9041e"/><path d="M56.1 16.6H31v12.6h25.1V16.6z" fill="#000"/><path d="M51.8 15.8H35.4v1.5h16.4v-1.5z" fill="#fff"/></svg>