<svg xmlns="http://www.w3.org/2000/svg" width="200" height="50" fill="#164883"  xmlnsV="https://vecta.io/nano"><path d="M72.96 33.613a7.81 7.81 0 0 1-3.508-.726c-1.004-.339-1.887-.98-2.54-1.814a7.11 7.11 0 0 1-1.694-2.782c-.351-1.089-.52-2.238-.484-3.387-.024-1.185.133-2.371.484-3.508a8.24 8.24 0 0 1 1.694-2.782c.69-.798 1.561-1.427 2.54-1.814a7.81 7.81 0 0 1 3.508-.726 9.02 9.02 0 0 1 2.54.363c.823.278 1.597.689 2.298 1.21.617.52 1.149 1.137 1.573 1.815.411.847.689 1.742.847 2.661h-3.629c-.048-.423-.169-.835-.363-1.21a5.61 5.61 0 0 0-.847-.847c-.339-.278-.702-.532-1.089-.726H72.96c-.762-.048-1.512.121-2.177.484-.544.266-1.004.689-1.331 1.21-.375.556-.665 1.173-.847 1.815a13.18 13.18 0 0 0-.242 2.177c.012.689.097 1.379.242 2.057.133.665.423 1.282.847 1.814a4.65 4.65 0 0 0 1.331 1.331 5.88 5.88 0 0 0 2.177.484c1.004.036 1.972-.363 2.661-1.089a4.8 4.8 0 0 0 1.089-2.782h3.629a10.03 10.03 0 0 1-.726 2.903c-.423.798-.956 1.524-1.573 2.177-.677.581-1.452 1.04-2.298 1.331-.895.302-1.839.423-2.782.363zm7.5-3.508h1.452a11.32 11.32 0 0 0 1.21-2.056l.726-2.54c.145-1.004.23-2.008.242-3.024a28.81 28.81 0 0 0 .121-3.387v-2.661h12.218v13.669h1.815V37h-3.387v-3.75H83.847V37H80.46v-6.895zm12.218 0V19.46h-4.96v.363c.024 1.052-.012 2.105-.121 3.145-.012.895-.085 1.778-.242 2.661a13.88 13.88 0 0 1-.605 2.419 10.51 10.51 0 0 1-.847 2.056h6.774zm7.016-13.669h5.201l3.871 11.613h.121l3.75-11.613h5.081V33.25h-3.387V21.395l-4.113 11.855h-2.903l-4.113-11.734V33.25h-3.508V16.436zm19.838 0h11.613v1.452h-9.919v5.686h6.29c1.343-.133 2.686.363 3.629 1.331.92.932 1.403 2.202 1.331 3.508.048 1.306-.436 2.564-1.331 3.508-.98.919-2.286 1.391-3.629 1.331h-7.984V16.436zm7.621 15.484a4.1 4.1 0 0 0 2.783-.968c1.27-1.452 1.27-3.629 0-5.081a4.1 4.1 0 0 0-2.783-.968h-5.927v7.016h5.927zm11.855-15.484h1.815l6.532 16.815h-1.694l-2.056-5.202h-7.621l-2.057 5.202h-1.693l6.774-16.814zM143 26.597l-3.145-8.589-3.387 8.589H143zm5.565-10.161h1.572v7.258h9.92v-7.258h1.572V33.25h-1.572v-8.105h-9.92v8.105h-1.572V16.436zm14.879 0h1.572v9.073l9.678-9.073h2.177l-7.5 7.016 7.863 9.798h-2.057l-7.016-8.71-3.145 2.903v5.807h-1.572V16.436zM23 30.71l4.96 3.387c3.024-.605 15.605-3.145 15.605-7.621s-3.75-5.564-7.016-7.5-4.839-2.903-4.839-4.597 1.573-3.266 4.597-4.234l1.935-.484c-2.661.363-7.742 1.452-7.742 4.839s10.403 6.532 10.403 11.492S23 30.71 23 30.71z"/><path d="M33.403 14.258c0-2.298 2.419-3.629 4.355-4.355-2.54.605-5.686 1.935-5.686 4.476s2.178 2.903 4.718 4.355 7.016 4.234 7.016 7.742-2.782 4.234-8.226 6.048l-7.258 1.815L32.435 37s13.79-3.992 13.79-9.556c0-9.314-12.823-10.04-12.823-13.185zm12.702-2.298a2.43 2.43 0 0 1-2.419 2.419h-.605v1.21h.605c1.936.073 3.557-1.452 3.629-3.387v-.242a3.51 3.51 0 0 0-3.508-3.508h-3.629v8.589h1.21v-7.38h2.419a2.3 2.3 0 0 1 2.298 2.298z"/><path d="M43.807 7h-5.081v10.04h1.21V8.21h3.871c2.069 0 3.75 1.681 3.75 3.75 0 2.141-1.73 3.871-3.871 3.871h-.605v1.21h.605c2.782-.399 4.706-2.976 4.307-5.746-.315-2.19-2.008-3.931-4.185-4.294zm8.831 17.782v-6.29a2.41 2.41 0 0 0-2.177-2.419c-1.306.06-2.359 1.113-2.419 2.419v6.29h1.089v-6.411a1.21 1.21 0 0 1 1.319-1.089h.012a1.09 1.09 0 0 1 .968 1.198v6.302h1.21zm4.96 0v-6.29c-.06-1.27-1.04-2.298-2.298-2.419-.641.012-1.246.266-1.694.726a2.69 2.69 0 0 0-.726 1.694v6.29h1.21v-6.411a1.21 1.21 0 0 1 1.319-1.089h.012a1.22 1.22 0 0 1 .968 1.21v6.29h1.21z"/><path d="M55.298 14.742a3.8 3.8 0 0 0-2.54.847 3.88 3.88 0 0 0-5.444.605 3.9 3.9 0 0 0-.847 2.419v6.169h1.21v-6.29c0-1.427 1.113-2.601 2.54-2.661a2.79 2.79 0 0 1 2.419 1.452 2.65 2.65 0 0 1 2.298-1.452c1.403-.072 2.589 1.016 2.661 2.407v6.544h1.21v-6.169a3.75 3.75 0 0 0-3.508-3.871z"/></svg>