<svg xmlns="http://www.w3.org/2000/svg" width="200" height="50" fill="none"  xmlnsV="https://vecta.io/nano"><path d="M83.047 23.558v-6.94h4.076v-2.526h-11.12v2.526h4.076v6.94h2.968zm8.133-3.957v-5.509h-2.869v9.466h2.533l4.947-5.509v5.509h2.869v-9.466h-2.533l-4.947 5.509zm17.132.438v3.52h2.869v-9.466h-2.869v3.46h-4.611v-3.46h-2.869v9.466h2.869v-3.52h4.611zm10.859 3.52c.653 0 1.247-.06 1.801-.219 1.484-.418 2.453-1.631 2.453-3.281 0-1.571-.831-2.665-2.157-3.162-.633-.239-1.384-.259-2.097-.259h-2.948v-2.546h-2.869v9.466h5.817zm-.494-4.693c.395 0 .771 0 1.108.119a1.06 1.06 0 0 1 .752 1.034 1.19 1.19 0 0 1-.733 1.114c-.316.139-.633.139-1.127.139h-2.454v-2.406h2.454zm9.893 1.114l3.423 3.58h3.819l-4.769-4.932 4.591-4.534h-3.601l-3.463 3.56h-.792v-3.56h-2.869v9.466h2.869v-3.58h.792zm13.146-6.145c-3.859 0-6.174 2.188-6.174 5.011s2.315 5.012 6.174 5.012c3.839 0 6.154-2.188 6.154-5.012s-2.315-5.011-6.154-5.011zm0 7.716c-1.92 0-3.147-1.153-3.147-2.705s1.227-2.685 3.147-2.685c1.899 0 3.146 1.134 3.146 2.685s-1.247 2.705-3.146 2.705zm15.708-7.994h-2.868v.955c-3.601.08-5.759 1.611-5.759 4.315s2.158 4.117 5.759 4.196v.954h2.868v-.954c3.622-.08 5.779-1.492 5.779-4.196s-2.157-4.236-5.779-4.315v-.955zm-2.868 7.438c-1.979-.079-2.849-.895-2.849-2.168s.87-2.188 2.849-2.267v4.435zm2.868-4.435c1.999.079 2.85.994 2.85 2.267s-.851 2.088-2.85 2.168V16.56zm15.324-3.003h-2.869v.955c-3.601.08-5.758 1.611-5.758 4.315s2.157 4.117 5.758 4.196v.954h2.869v-.954c3.621-.08 5.778-1.492 5.778-4.196s-2.157-4.236-5.778-4.315v-.955zm-2.869 7.438c-1.979-.079-2.849-.895-2.849-2.168s.87-2.188 2.849-2.267v4.435zm2.869-4.435c1.999.079 2.85.994 2.85 2.267s-.851 2.088-2.85 2.168V16.56zM78.519 34.934v-.905h4.98v-1.555H76.48v6.729h4.754c.661 0 1.153-.057 1.519-.198.774-.297 1.294-1.018 1.294-1.965 0-.961-.492-1.626-1.266-1.922-.366-.142-.844-.184-1.365-.184h-2.898zm0 2.573v-1.074h2.785c.225 0 .408.014.549.085.169.085.253.24.253.438s-.099.41-.338.495c-.112.042-.267.057-.464.057h-2.785zm8.737-1.117v-3.916h-2.04v6.729h1.8l3.517-3.916v3.916h2.04v-6.729h-1.801l-3.517 3.916zm10.209-4.156c.9 0 1.547.113 1.983.24.999.283 1.533.905 1.533 1.654 0 .777-.464 1.286-1.167 1.583.858.212 1.35.82 1.35 1.583 0 .876-.562 1.569-1.519 1.852-.478.142-1.069.255-2.236.255-.942 0-1.758-.085-2.307-.283-.816-.297-1.392-.891-1.505-1.866h2.251c.07.283.281.48.492.58s.563.184 1.083.184c.759 0 .971-.099 1.167-.17.309-.113.436-.353.436-.622a.54.54 0 0 0-.394-.537c-.183-.071-.38-.085-.971-.085h-1.787v-1.527h1.66c.408 0 .647 0 .9-.071a.55.55 0 0 0 .422-.566c0-.226-.127-.481-.492-.622-.267-.113-.605-.155-1.027-.155-.38 0-.661.042-.9.141-.267.099-.45.254-.591.566h-2.194c.112-.877.689-1.527 1.575-1.824.703-.24 1.435-.311 2.236-.311zm10.252 4.467v2.502h2.04v-6.729h-2.04v2.46h-3.277v-2.46h-2.04v6.729h2.04v-2.502h3.277zm10.393-4.227h-6.808v6.729h6.808v-1.541h-4.769v-1.187h4.488v-1.343h-4.488v-1.117h4.769v-1.541zm9.19 2.672c-.295-1.668-1.772-2.856-4.107-2.856-2.673-.028-4.319 1.527-4.319 3.563 0 2.008 1.646 3.563 4.319 3.563 2.362-.014 3.783-1.187 4.093-2.87h-2.153c-.211.763-.956 1.287-1.997 1.287-1.308 0-2.11-.877-2.11-1.979s.802-1.965 2.11-1.965c1.041 0 1.773.509 1.984 1.258h2.18z" fill="#000"/><g fill="#fff"><path d="M67.868 24.293l.603-1.919-1.996.062c-.169 0-1.394-.035-2.583-.891l.268.021c1.224 0 2.408-.732 2.882-1.779l.859-1.892c-1.076.014-2.06-.121-2.06-.121-.009-.002-.784-.1-1.681-1.011-.643-.653-1.439-.998-2.302-.998a3.33 3.33 0 0 0-1.005.159 3.57 3.57 0 0 0 .113-.47c.275-1.771-.873-3.122-.873-3.12l-1.5-1.847-.93 2.17c-.003.007-.238.515-.659.764-.127-.638-.438-1.354-1.104-2.04-1.255-1.292-2.783-1.484-3.583-1.484-.37 0-.634.04-.699.05l-1.811.354a6.15 6.15 0 0 1 .733-1.733l1-1.548-2.515.285-.801-1.691-1.551.795L45.239 5l-1.431 1.408-1.556-.795-.8 1.691-2.514-.285 1.001 1.548c.407.631.629 1.328.732 1.731l-1.728-.339-.059-.01c-.087-.014-.349-.054-.721-.054-.8 0-2.328.194-3.579 1.484-.668.684-.979 1.403-1.107 2.04-.417-.245-.65-.746-.65-.746l-.932-2.182-1.525 1.859c-.186.24-1.106 1.51-.855 3.106.026.159.068.314.113.468-.289-.092-.626-.159-1.003-.159-.862 0-1.658.345-2.303.998-.894.907-1.665 1.009-1.658 1.009 0 0-.815.145-2.078.123l.854 1.892c.475 1.048 1.66 1.779 2.882 1.779.092 0 .181-.012.271-.021-1.186.857-2.411.892-2.559.893L22 22.373l.615 1.918c.309.988 1.344 2.626 3.326 2.802-.216.898-.694 1.904-1.744 2.337l-1.514.62.826 1.429c.466.771 1.559 1.672 3.117 1.672.337-.002.662-.035.975-.1.08.352.181.705.299 1.054.464 1.372.064 2.329.059 2.339L27.212 38l1.669.437c.021.007.525.143 1.156.143.287 0 .56-.029.817-.09a3.7 3.7 0 0 0 .56-.178c.216.385.478.736.784 1.05 1.069 1.09 2.583 1.643 4.503 1.643h.007l1.37-.017-2.83 1.168 2.149 1.031 2.649 1.168-.268.729.741.335c.066.029 1.49.663 3.858.798l.887.026.88-.028c2.352-.138 3.765-.765 3.832-.796l.742-.337-.271-.731c.97-.352 1.93-.817 2.677-1.18l2.109-1.018-2.822-1.17 1.375.017c1.921 0 3.437-.553 4.504-1.645a5.08 5.08 0 0 0 .784-1.049 3.72 3.72 0 0 0 .561.178c.256.061.528.09.815.09.621 0 1.13-.136 1.144-.14l1.676-.441-.73-1.527c-.017-.04-.417-.995.047-2.368.118-.351.217-.703.297-1.054a4.81 4.81 0 0 0 .982.1c1.984 0 2.934-1.387 3.119-1.688l.817-1.413-1.514-.618c-1.052-.434-1.528-1.441-1.742-2.337 1.954-.166 3.004-1.803 3.324-2.799zM40.805 10.96l-.021.005.017-.022.003.017z"/><path d="M45.241 10.875c-1.603.002-2.804.524-3.067 1.137l3.067 1.202 3.066-1.202c-.261-.613-1.462-1.135-3.066-1.137zm.031 31.829h-.061c-.972.007-2.309-.192-2.954-.378l-.775 2.085c.511.181 2.243.527 3.76.527s3.247-.347 3.757-.527l-.773-2.085c-.647.188-1.982.385-2.954.378zm5.867-2.072c-.577.325-1.865.812-2.615 1.038l.629 1.722c1.16-.314 2.116-.682 2.907-1.076l-1.306-.432.384-1.252zm-11.795 0l.386 1.252-1.307.432c.789.394 1.751.762 2.905 1.076l.629-1.722c-.746-.226-2.036-.715-2.613-1.038zm5.897-31.75c1.208 0 2.394.287 3.305.791a8.08 8.08 0 0 1 .358-.967l-.344.041-.361.038-.153-.326-.461-.967-.84.435-.327.166-.261-.256-.913-.898-.911.898-.261.256-.327-.166-.845-.435-.456.967-.157.326-.361-.038-.344-.041a8.39 8.39 0 0 1 .358.967c.913-.504 2.095-.791 3.3-.791zm18.446 11.18a1.46 1.46 0 0 0 .474.078c.683 0 1.344-.439 1.572-.942 0 0-1.253-.076-2.601-1.436-.429-.441-.883-.572-1.273-.572-.605 0-1.059.318-1.059.318 1.627.86 1.959 2.242 2.886 2.553zm-37.367.078c.158 0 .318-.024.471-.078.93-.311 1.264-1.693 2.891-2.553 0 0-.455-.318-1.057-.318-.391 0-.845.131-1.276.572-1.346 1.36-2.599 1.436-2.599 1.436.224.503.887.942 1.57.942zm37.809 5.538l.082.002c1.705 0 2.284-1.816 2.284-1.816h-.033a6.2 6.2 0 0 1-4.642-2.337c-1.18-1.489-2.147-2.799-4.057-3.313l-.188-.033-.042-.19c-.052-.29.148-.561.602-.855 2.635-1.715.847-3.902.847-3.902s-.753 1.75-2.437 1.75c-.04 0-.083-.002-.125-.002-.191-.01-.376-.017-.562-.057l-.311-.06s.48-1.297-.678-2.489c-.873-.9-1.935-1.052-2.549-1.052-.309 0-.506.04-.506.04.582.757 1.003 2.011.33 2.785-.581.665-1.999.698-1.999 1.69 0 .42.395.91 1.104 1.351 2.133 1.335 4.25 3.106 5.13 5.48 1.1 2.961-.139 4.925-1.909 6.051 0 0 .555.508 1.359.572l.473.022c1.698 0 2.576-.791 2.576-.791s-.144 1.094-1.029 2.109c-.815.938-1.886 1.489-3.519 1.513 0 0-.052.753.671 1.404.462.411 1.532.546 1.532.546s-2.001.403-2.222 3.339c-.12 1.591-.529 2.144-.529 2.144h.036c4.643 0 4.523-3.958 4.523-3.958s.323 1.171 1.618 1.477a1.91 1.91 0 0 0 .483.057c.417 0 .779-.097.779-.097s-.678-1.422-.005-3.41c.558-1.65.468-2.873.468-2.873s.626.94 2.177.948h.016c1.292 0 1.855-.973 1.855-.973-3.096-1.277-2.79-5.398-2.79-5.398s.402.297 1.186.326zm-.932 4.305c-1.259-.617-2.055-2.254-2.248-2.845-.209 3.248-1.804 5.502-3.67 7.672-.968 1.125-1.306 2.218-1.306 2.218s.186-1.239 1.024-2.248c1.74-2.078 3.393-4.664 3.517-7.654.085-2.087-.456-3.78-1.299-5.174.471 1.453.405 3.232-1.196 4.892 0 0 3.186-3.795-1.269-7.686-1.784-1.48-3.734-2.394-4.739-3.042 3.63 1.176 5.401-.119 5.401-.119-1.16.998-2.66.981-3.59.838l.798.401c3.06 1.652 5.81 4.369 6.279 8.133v-.029c.713 3.695 2.296 4.643 2.296 4.643zm-29.249 4.112s1.069-.133 1.532-.546c.721-.651.671-1.404.671-1.404-1.634-.022-2.703-.575-3.524-1.512-.878-1.016-1.024-2.109-1.024-2.109s.878.791 2.574.791l.475-.022c.805-.064 1.361-.572 1.361-.572-1.77-1.126-3.011-3.092-1.912-6.053.881-2.372 2.997-4.144 5.13-5.48.709-.441 1.104-.929 1.104-1.351 0-.992-1.417-1.024-1.998-1.69-.673-.774-.25-2.03.33-2.785 0 0-.193-.04-.504-.04-.612 0-1.674.152-2.547 1.052-1.161 1.192-.68 2.489-.68 2.489l-.311.06c-.186.04-.372.047-.561.057l-.123.002c-1.688 0-2.437-1.748-2.437-1.748s-1.789 2.187.845 3.902c.454.294.652.565.6.855l-.042.19-.191.033c-1.907.515-2.875 1.824-4.056 3.313a6.19 6.19 0 0 1-4.638 2.335h-.035s.579 1.816 2.284 1.816l.082-.002c.784-.028 1.187-.326 1.187-.326s.302 4.12-2.79 5.398c0 0 .563.973 1.855.973h.016c1.552-.009 2.177-.948 2.177-.948s-.09 1.223.466 2.873c.673 1.988-.002 3.41-.002 3.41a3.37 3.37 0 0 0 .777.097 1.88 1.88 0 0 0 .482-.057c1.293-.306 1.618-1.477 1.618-1.477s-.118 3.958 4.525 3.958h.033s-.407-.553-.525-2.144c-.222-2.937-2.223-3.339-2.223-3.339zm-.746.715c-1.865-2.17-3.459-4.424-3.67-7.672-.193.589-.986 2.229-2.244 2.845 0 0 1.582-.948 2.293-4.643v.029c.471-3.762 3.22-6.482 6.281-8.133.28-.152.546-.28.796-.401-.93.143-2.43.161-3.59-.838 0 0 1.771 1.296 5.399.119-1.005.648-2.953 1.562-4.737 3.042-4.457 3.89-1.269 7.686-1.269 7.686-1.603-1.662-1.667-3.44-1.196-4.892-.845 1.396-1.384 3.087-1.297 5.174.122 2.99 1.775 5.576 3.512 7.654a5.13 5.13 0 0 1 1.029 2.248s-.341-1.093-1.307-2.218zm8.606-15.185l.222.258.05.064.198.276.044.064.224.363c.669 1.149 1.742 1.835 2.693 1.836s2.022-.688 2.695-1.836l.228-.368.035-.05.209-.288.043-.055.23-.264.036-.036a2.78 2.78 0 0 1 1.279-.758l-.236-.137h-.014l-.942-.544-.968-.551-2.587 1.399-.007-.005-.005.005-2.588-1.399-.967.549-.944.544h-.01l-.24.137a2.78 2.78 0 0 1 1.281.755c.016.014.026.029.042.043zm2.385-.112h2.189v.746c-.257-.313-.758-.249-.758-.249v1.076s.019.529.205.758h-1.083c.19-.228.207-.758.207-.758V20.01s-.499-.064-.76.249v-.746zm.824-1.448v-4.369l-2.799-.943.739 4.234 2.06 1.078zm-.602-3.296v.701l-.136-.062c-.007-.005-.205-.05-.553-.323-.574-.442-.584-.85-.584-.85l1.273.534zm3.112 2.218l.735-4.234-2.797.943v4.369l2.062-1.078zm-1.46-2.218l1.272-.532s-.01.408-.586.85c-.346.273-.546.318-.553.323l-.136.062v-.703h.002zm-5.009 13.425c.273.099.603.119.772.119l.024-.078.04-.154a4.37 4.37 0 0 0 .068-.693c-.115-.071-.276-.197-.367-.385-.104-.218-.252-.318-.469-.318-.282 0-.584.168-.713.247-.103.603.344 1.15.645 1.261z"/><path d="M47.249 25.875l-1.587 1.589-.061.062-3.214-.05a3.22 3.22 0 0 1-.104.783l-.026.102 3.824.682 1.917-1.382a1.84 1.84 0 0 1-.269-1.356c-.202-.13-.356-.275-.48-.43z"/><path d="M47.685 22.033c-.741.731-1.452 1-2.086 1.062a3.33 3.33 0 0 1-.349.019h-.016a3.36 3.36 0 0 1-.351-.019 2.69 2.69 0 0 1-.344-.054c-.042.164-.094.508.056.833.134.295.407.515.805.66l.134.052.002.143c0 .043.031.973 1.052 1.23l.429-.453c-.209-.487-.099-.985.203-1.228-.014.052-.146 1.271.838 1.724l.162.076-.049.171c-.016.052-.344 1.232.847 1.671l.21.079-.094.204c-.021.045-.489 1.116.612 1.724h2.387v-1.883c-.848-.104-1.208-.781-1.3-1.261-.395-.067-.701-.237-.909-.513-.501-.655-.07-1.254-.064-1.287-.002.005 0 .644.396 1.038.197.19.43.337.782.37l.174.015.016.176c.004.038.099.902.907 1.038l-.002-3.845c0-.596.175-1.195.386-1.748h-4.833v.005zm-6.423 1.762l-.064 2.45.28.042.685-2.349-.348-.722-.553.58zm7.551 11.234c.021 0 .045.004.068.009.426.121.534 1.648 1.281 1.785a.99.99 0 0 0 .2.019c.216 0 .344-.092.483-.254l-.657-.983c-.374-.518-.664-1.145-1.36-1.145l-.054.002c-.23.012-.37.123-.37.123-.282-.176-.544-.237-.782-.237-.436 0-.775.199-.944.199h-.007l-1.554-.152c-.243-.023-.435-.266-.504-.361l-.026-.041-.004-.123c-.052-1.263-1.036-1.803-1.386-1.812 0 0 .042-.24-.054-.332l-.342.413-1.125-.561.801.931-.68.758c-.085.086-.075.204-.04.252l.294.257.372-.225c.019-.014.052-.017.094-.017.102 0 .257.026.396.026.151 0 .283-.033.299-.174-.047.468-.483 1.282-.197 1.921l.212.482-1.373-.197-.643 1.08c-.198.359-.229.748-.038.959l.24.299s.337-.356.414-.589l-.109-.119c-.092-.1-.087-.19-.031-.299l.403-.665 1.622.38.085-.145c.109-.181.268-.237.442-.237a1.42 1.42 0 0 1 .221.021c.301.059.796.138 1.292.138.544 0 1.083-.097 1.37-.416.588.866 1.778 1.004 1.685 1.443l-.313 1.482.596-.048.297-1.543.064-.394c-.115-.116-.393-.361-.549-.658-.21-.401-.096-.61-.292-1.132.007.004.066-.117.203-.117zm-6.067-2.166c-.08-.002-.137-.069-.134-.149a.14.14 0 0 1 .15-.13c.08.003.137.072.134.148s-.073.135-.15.13z"/><path d="M40.532 36.432s.537-.219.586-.377l-.071-.178c-.05-.116-.044-.242.054-.311l.581-.399.97.185s-.175-.218-.158-.51l-.925-.195-.873.529a.84.84 0 0 0-.278 1.002l.115.254zm6.856 2.512l.575-.01.527-1.496c-.28-.123-.861-.428-1.085-.568.148.219.508.472.436.665l-.454 1.41z"/></g><path d="M52.137 30.348H38.346v5.155c0 2.108 1.535 3.427 3.8 3.427 1.893 0 2.392.073 3.096.767.485-.48.887-.66 1.711-.727l.019-.08.435-1.335-.735-.833c-.282.093-.518.109-.916.109-.409 0-.869-.047-1.368-.14-.05-.012-.097-.016-.144-.016-.061 0-.066.005-.082.035l-.087.142-.158.259-.297-.067-1.323-.309-.181.297.028.031.162.176-.071.23c-.097.301-.414.651-.509.748l-.33.352-.301-.378-.226-.282c-.238-.264-.294-.67-.16-1.095l-.388.159-.169-.363-.118-.257a1.25 1.25 0 0 1 .419-1.513l1.066-.598 1.014.199c.024-.097.061-.442.09-.53-.019-.002-.038-.007-.057-.007l-.584.216-.563-.387s-.221-.211-.021-.422l.546-.821-1.382-1.724 2.124.867.141-.174.287-.34.325.307c.092.088.144.197.17.306.586.226 1.634.895 1.726 1.982l-.329.131v.009c.075.088.137.124.156.128l1.516.149c.038-.007.087-.024.141-.04.188-.064.471-.155.807-.155a1.87 1.87 0 0 1 .791.18 1.22 1.22 0 0 1 .341-.069l.073-.002c.812 0 1.215.603 1.539 1.083l.163.24.669 1.004.167.259-.205.237c-.158.181-.395.394-.801.394a1.48 1.48 0 0 1-.275-.028c-.087-.015-.165-.041-.242-.073l-.044.256-.266 1.379c1.591-.389 2.601-1.582 2.601-3.289l.002-5.156zm-13.791-.415H49.07c-.535-.549-.528-1.245-.391-1.698a1.83 1.83 0 0 1-.4-.261l-2.032 1.465-.071.048-4.209-.757h-.085c-.101 0-.249-.003-.41-.022a.41.41 0 0 1-.396.318c-.021 0-.045-.002-.068-.007-.11-.019-.205-.074-.27-.166s-.092-.197-.073-.308l.016-.09c-.435-.304-.834-.983-.657-1.698l.017-.076.061-.043c.009-.007.082-.055.19-.117l-.306-.047a.21.21 0 0 1-.174-.238c.019-.114.127-.195.24-.173l.728.114.066-2.55 1.085-1.14.676 1.415-.714 2.453.643.1c.113.017.191.123.174.238-.017.102-.104.173-.207.173-.01 0-.023 0-.033-.002l-.523-.085c.007.016.017.024.024.041a.57.57 0 0 0 .252.232l3.209.05.819-.807c-.789-.297-1.076-.974-1.125-1.423-.441-.187-.746-.466-.914-.831-.205-.451-.132-.902-.078-1.121-.428-.155-.878-.439-1.337-.891h-4.833c.207.553.382 1.152.382 1.748v6.155z" fill="#ffdd2d"/><g fill="#000"><path d="M42.764 32.585c-.078-.007-.144.053-.15.13s.054.147.134.148c.076.007.144-.052.151-.13 0-.076-.056-.147-.136-.148zm9.354 9.347l-.794-.302.219-.815.242-.89s-1.408.758-3.392 1.328l-.989.233v.605s-1.06.183-2.133.183h-.061c-1.073 0-2.133-.183-2.133-.183v-.605s-.428-.073-.989-.233c-1.983-.57-3.39-1.328-3.39-1.328l.238.89.224.815-.796.302-.883.328c1.014.486 2.416 1.194 3.701 1.543l-.303.822s1.629.738 4.343.744v.002h.038v-.002c2.717-.007 4.344-.744 4.344-.744l-.304-.822c1.285-.349 2.691-1.057 3.699-1.543l-.881-.328zm-13.695.383l1.307-.432-.386-1.252c.575.325 1.867.812 2.615 1.038l-.631 1.722c-1.154-.316-2.116-.684-2.905-1.076zm6.82 2.622c-1.518 0-3.251-.347-3.76-.527l.775-2.085c.643.187 1.982.385 2.953.378h.061a12.68 12.68 0 0 0 2.954-.378L49 44.41c-.509.181-2.241.527-3.757.527zm3.911-1.546l-.629-1.722c.749-.226 2.038-.714 2.615-1.038l-.384 1.252 1.306.432c-.791.392-1.747.76-2.907 1.076zM45.241 9.386c1.617 0 2.91.532 3.625 1.1 0 0 .212-1.27.937-2.391l-1.302.147-.681-1.439-1.309.67-1.269-1.247-1.265 1.247-1.311-.67-.68 1.439-1.302-.147a7.13 7.13 0 0 1 .937 2.391c.716-.568 2.006-1.1 3.621-1.1zm-3.315-.639l.362.038.156-.326.455-.967.845.434.327.166.261-.256.911-.898 1.173 1.154.327-.166.84-.434.461.967.153.326.362-.038.344-.041a8.11 8.11 0 0 0-.358.967c-.911-.504-2.096-.791-3.305-.791-1.203 0-2.387.287-3.301.791-.085-.278-.2-.615-.358-.967l.346.041zm22.283 17.487c2.091 0 2.79-2.114 2.82-2.204l.233-.745-.787.024a5.63 5.63 0 0 1-4.219-2.127l-.155-.192c-1.069-1.351-2.083-2.634-3.894-3.22a1.81 1.81 0 0 1 .229-.171c.961-.629 1.521-1.392 1.662-2.279.205-1.333-.65-2.396-.688-2.439l-.582-.715-.363.848c-.024.054-.636 1.411-1.923 1.411h-.096l-.256-.015c.045-.606-.066-1.544-.921-2.424-1.027-1.059-2.289-1.218-2.95-1.218-.353 0-.588.043-.612.047l-.88.173.542.71c.426.548.812 1.558.355 2.087-.146.168-.447.304-.735.441-.593.271-1.401.648-1.401 1.608 0 .622.485 1.272 1.365 1.824 2.604 1.627 4.21 3.325 4.904 5.2 1.073 2.883-.327 4.528-1.686 5.393l-.61.39.534.487c.071.062.725.634 1.69.717l.522.022a5.41 5.41 0 0 0 1.573-.226 3.98 3.98 0 0 1-.445.625c-.777.895-1.733 1.302-3.108 1.323l-.511.009-.04.51c-.005.102-.044 1.047.857 1.85a2.06 2.06 0 0 0 .478.311c-.61.546-1.231 1.496-1.351 3.125-.101 1.359-.428 1.862-.431 1.867l-.565.857 1.02.014c1.686 0 2.978-.463 3.873-1.379.529-.542.831-1.154 1.01-1.696a2.75 2.75 0 0 0 1.166.582 2.74 2.74 0 0 0 .614.067c.476 0 .874-.1.92-.11l.652-.173-.288-.605c-.021-.048-.565-1.261.021-2.992.252-.748.381-1.418.443-1.94.41.212.96.389 1.671.39 1.613 0 2.324-1.197 2.357-1.247l.318-.549-.589-.242c-1.923-.793-2.349-2.923-2.434-4.077a3.81 3.81 0 0 0 .596.071h.097zm1.525 4.516s-.563.973-1.855.973h-.016c-1.551-.009-2.177-.948-2.177-.948s.09 1.223-.469 2.873c-.673 1.988.005 3.41.005 3.41s-.362.097-.779.097c-.16 0-.327-.016-.483-.057-1.295-.306-1.618-1.477-1.618-1.477s.12 3.958-4.523 3.958h-.037s.409-.553.53-2.144c.221-2.937 2.222-3.339 2.222-3.339s-1.067-.133-1.53-.546c-.723-.651-.673-1.404-.673-1.404 1.634-.023 2.703-.575 3.518-1.513.883-1.016 1.029-2.109 1.029-2.109s-.878.791-2.576.791a5.04 5.04 0 0 1-.473-.023c-.803-.064-1.359-.572-1.359-.572 1.768-1.126 3.009-3.092 1.909-6.053-.881-2.372-2.999-4.144-5.13-5.479-.709-.441-1.104-.929-1.104-1.351 0-.992 1.419-1.023 2.001-1.689.671-.774.25-2.03-.332-2.785 0 0 .197-.04.506-.04.614 0 1.676.154 2.549 1.052 1.16 1.192.678 2.489.678 2.489l.311.061c.186.04.37.047.561.055l.125.002c1.685 0 2.437-1.75 2.437-1.75s1.791 2.189-.845 3.903c-.454.294-.654.565-.602.855l.042.19.188.033c1.911.515 2.877 1.824 4.058 3.313 1.792 2.265 4.329 2.337 4.641 2.337h.033s-.579 1.816-2.284 1.816c-.028 0-.052 0-.082-.002-.784-.028-1.186-.327-1.186-.327s-.308 4.124 2.788 5.402zm-5.199-12.751c.781.413 1.234.966 1.632 1.456.391.478.763.94 1.344 1.131.207.071.426.104.648.104.873 0 1.749-.53 2.081-1.264l.334-.736-.809-.048c-.038-.002-1.078-.095-2.236-1.271-.476-.482-1.052-.736-1.672-.736-.758 0-1.319.377-1.382.415l-.744.52.803.43zm1.325-.808c.389 0 .843.131 1.272.572 1.347 1.36 2.601 1.436 2.601 1.436-.228.501-.888.941-1.572.941-.158 0-.316-.024-.475-.078-.927-.311-1.259-1.693-2.888-2.553 0 0 .455-.318 1.061-.318zm-.96 8.149v.028c-.469-3.762-3.219-6.48-6.279-8.133a23.43 23.43 0 0 0-.798-.401c.932.143 2.432.161 3.59-.838 0 0-1.772 1.296-5.401.119 1.005.648 2.957 1.562 4.739 3.042 4.456 3.89 1.267 7.686 1.267 7.686 1.601-1.66 1.667-3.44 1.196-4.892.843 1.394 1.382 3.087 1.299 5.174-.123 2.99-1.777 5.576-3.517 7.655-.836 1.009-1.024 2.248-1.024 2.248s.337-1.094 1.306-2.218c1.865-2.17 3.459-4.424 3.668-7.672.193.589.988 2.229 2.248 2.845.004.002-1.58-.947-2.293-4.642zM37.156 39.261c-.002-.005-.325-.508-.429-1.867-.122-1.629-.741-2.579-1.352-3.125.177-.083.341-.185.478-.311.899-.803.861-1.748.855-1.85l-.035-.51-.515-.009c-1.372-.022-2.329-.43-3.107-1.323-.181-.211-.327-.42-.445-.625a5.38 5.38 0 0 0 1.572.226l.522-.023a3.09 3.09 0 0 0 1.691-.717l.534-.487-.61-.39c-1.365-.867-2.759-2.512-1.688-5.393.694-1.874 2.298-3.572 4.906-5.2.88-.553 1.361-1.202 1.361-1.824 0-.96-.807-1.339-1.4-1.608-.288-.136-.589-.273-.735-.44-.459-.527-.071-1.539.353-2.087l.546-.71-.883-.173c-.026-.004-.257-.047-.612-.047-.66 0-1.919.159-2.948 1.218-.857.881-.97 1.819-.927 2.424l-.254.016h-.094c-1.29 0-1.9-1.358-1.925-1.411l-.363-.848-.588.715c-.033.043-.892 1.107-.683 2.439.139.886.699 1.65 1.66 2.279a1.71 1.71 0 0 1 .23.171c-1.81.586-2.822 1.871-3.891 3.222l-.155.192a5.63 5.63 0 0 1-4.222 2.127l-.788-.024.24.745c.028.09.725 2.204 2.818 2.204l.101-.003a3.69 3.69 0 0 0 .596-.071c-.087 1.152-.513 3.282-2.437 4.077l-.588.242.318.549c.031.05.744 1.247 2.361 1.247.706-.002 1.255-.178 1.667-.39.063.522.191 1.192.443 1.94.586 1.731.04 2.944.019 2.992l-.289.605.654.173c.043.01.445.111.92.111a2.69 2.69 0 0 0 .612-.067c.495-.116.878-.334 1.168-.582.177.542.482 1.154 1.008 1.696.897.916 2.187 1.379 3.873 1.379l1.022-.014-.567-.855zm-.494.316c-4.643 0-4.525-3.958-4.525-3.958s-.323 1.171-1.618 1.477a1.9 1.9 0 0 1-.482.057c-.417 0-.777-.097-.777-.097s.675-1.422.002-3.41c-.556-1.65-.466-2.873-.466-2.873s-.624.94-2.176.948h-.016c-1.292 0-1.855-.973-1.855-.973 3.094-1.277 2.79-5.398 2.79-5.398s-.402.297-1.187.326l-.082.002c-1.707 0-2.284-1.816-2.284-1.816h.035a6.19 6.19 0 0 0 4.64-2.337c1.18-1.489 2.149-2.797 4.056-3.313l.191-.033.042-.19c.052-.29-.146-.562-.6-.855-2.635-1.715-.845-3.902-.845-3.902s.749 1.748 2.437 1.748l.123-.002c.189-.01.377-.017.562-.057l.311-.06s-.482-1.297.68-2.489c.873-.9 1.935-1.052 2.547-1.052.311 0 .504.04.504.04-.581.757-1.001 2.011-.33 2.785.581.665 1.997.698 1.997 1.689 0 .42-.395.91-1.104 1.351-2.133 1.335-4.251 3.108-5.13 5.48-1.099 2.961.141 4.925 1.912 6.053 0 0-.556.508-1.361.572l-.475.022c-1.697 0-2.575-.791-2.575-.791s.146 1.094 1.024 2.109c.821.938 1.89 1.491 3.524 1.513 0 0 .052.753-.671 1.404-.464.411-1.531.546-1.531.546s2.003.402 2.222 3.339c.12 1.591.525 2.144.525 2.144h-.033zM26.32 20.693c.224 0 .443-.033.65-.104.584-.192.954-.653 1.345-1.131.4-.491.85-1.043 1.631-1.456l.803-.428-.746-.52c-.063-.04-.622-.415-1.379-.415-.622 0-1.2.252-1.674.736-1.158 1.175-2.196 1.27-2.234 1.272l-.808.047.332.738c.334.731 1.208 1.263 2.079 1.263zm1.029-2.928c.431-.441.885-.572 1.276-.572a2.03 2.03 0 0 1 1.057.318c-1.627.862-1.961 2.242-2.891 2.553a1.44 1.44 0 0 1-.471.078c-.683 0-1.344-.439-1.57-.942 0-.002 1.252-.078 2.599-1.435z"/><path d="M29.969 27.126c-.087-2.087.452-3.78 1.297-5.174-.471 1.453-.407 3.232 1.196 4.892 0 0-3.188-3.795 1.269-7.686 1.784-1.48 3.734-2.394 4.737-3.042-3.628 1.176-5.399-.119-5.399-.119 1.158.999 2.658.981 3.59.836l-.796.401c-3.063 1.653-5.812 4.371-6.283 8.133v-.029c-.711 3.695-2.293 4.643-2.293 4.643 1.259-.617 2.051-2.254 2.244-2.845.21 3.248 1.805 5.502 3.67 7.672.968 1.125 1.309 2.218 1.309 2.218s-.19-1.239-1.029-2.247c-1.737-2.075-3.39-4.663-3.512-7.653zm14.224-7.613v.746c.259-.313.76-.249.76-.249v1.076s-.017.529-.207.758h1.083c-.186-.228-.205-.758-.205-.758V20.01s.501-.064.758.249v-.746h-2.189zm-.466-4.426c.346.273.546.318.553.323l.136.062v-.703l-1.273-.532c0 .002.012.408.584.85zm3.026 0c.575-.442.586-.85.586-.85l-1.273.532v.703l.134-.062c.009-.005.207-.05.553-.323zm2.293-2.863c0-1.066-1.806-2.025-3.8-2.025h-.012c-1.994 0-3.8.959-3.8 2.025l.04.263.796 4.542-.8.461-2.069 1.201h.007l-.681.383c-.787.544-.954 1.337-.497 1.665.113-.646.628-1.323 1.591-1.323.694 0 1.222.356 1.65.89a4.31 4.31 0 0 1 .311.434l.36.532h-5.328c.391.783.763 1.612.763 2.512v11.719c0 2.837 2.196 4.191 4.57 4.191 1.836 0 2.082-.083 3.096.919 1.008-1.004 1.255-.919 3.093-.919 2.376 0 4.569-1.354 4.569-4.191v-11.72c0-.9.372-1.729.765-2.512h-5.33l.358-.532a4.96 4.96 0 0 1 .309-.434c.431-.536.958-.89 1.651-.89.963 0 1.476.675 1.591 1.323.457-.328.292-1.121-.501-1.665-.212-.147-.678-.383-.678-.383h.007l-2.865-1.662.796-4.542.038-.263zm-6.828.529l2.799.943v4.369l-2.06-1.08-.739-4.232zm.579 9.28c.459.454.909.736 1.337.891-.056.219-.129.672.078 1.123.169.363.475.643.915.829a1.72 1.72 0 0 0 1.125 1.423l-.82.807-3.207-.05a.57.57 0 0 1-.252-.233c-.007-.015-.017-.024-.023-.041l.523.085c.012.002.023.002.033.002.101 0 .189-.069.207-.173.017-.116-.061-.221-.174-.238l-.643-.1.715-2.451-.676-1.415-1.085 1.14-.066 2.55-.728-.114c-.113-.023-.221.06-.24.173a.21.21 0 0 0 .174.238l.306.047-.19.117-.063.043-.017.076c-.177.715.224 1.394.657 1.698l-.016.09c-.017.111.007.218.073.308s.16.147.268.166c.023.003.047.005.068.005.188 0 .351-.13.398-.318.162.019.309.022.41.022h.085l4.209.755.071-.047 2.032-1.465a1.77 1.77 0 0 0 .4.262c-.136.453-.144 1.149.393 1.698H38.346v-6.152c0-.596-.176-1.195-.382-1.748h4.833v-.003zm5.201 5.628l-1.918 1.382-3.824-.682.026-.102c.05-.197.101-.466.104-.783l3.214.052.061-.062 1.587-1.589a1.95 1.95 0 0 0 .48.43c-.069.373-.04.905.27 1.354zm-6.403-.658c.09.188.254.314.367.385a4.36 4.36 0 0 1-.068.693 1.4 1.4 0 0 1-.04.154l-.024.078c-.169 0-.501-.021-.772-.119-.301-.111-.749-.658-.645-1.261.13-.079.431-.247.713-.247.217-.002.365.1.469.318zm-.398-.758l.064-2.448.553-.582.348.722-.685 2.349-.28-.041zm6.766 12.69l-.575.01.456-1.408c.071-.195-.289-.446-.436-.665a11.93 11.93 0 0 0 1.085.568c-.03.045-.529 1.494-.529 1.494zm1.429-1.6l-.297 1.541a6.47 6.47 0 0 1-.598.048l.313-1.482c.094-.44-1.097-.577-1.684-1.442-.287.321-.828.416-1.37.416-.495 0-.991-.08-1.292-.138a1.43 1.43 0 0 0-.221-.021.47.47 0 0 0-.442.237l-.087.145-1.622-.38-.403.663c-.057.107-.061.199.031.299l.109.119c-.075.235-.412.589-.412.589l-.242-.299c-.191-.212-.16-.599.04-.959l.643-1.08 1.373.197-.214-.484c-.287-.639.149-1.453.197-1.921-.016.142-.146.173-.299.173-.139 0-.294-.026-.396-.026-.04 0-.075.003-.094.017l-.372.224-.294-.257c-.035-.05-.047-.166.04-.252l.68-.757-.803-.931 1.125.561.342-.413c.094.091.054.332.054.332.351.009 1.335.549 1.387 1.811.004.038.004.081.004.123 0 0 .009.016.026.041.069.095.261.339.504.361l1.561.152c.17 0 .509-.199.944-.199a1.45 1.45 0 0 1 .782.237s.141-.111.37-.123c.017-.002.036-.002.054-.002.697 0 .986.625 1.359 1.145l.657.983c-.139.164-.268.254-.483.254a1.07 1.07 0 0 1-.2-.019c-.748-.136-.855-1.663-1.281-1.785a.24.24 0 0 0-.068-.009c-.137 0-.198.121-.198.121.195.52.082.731.29 1.131.156.297.435.543.549.658a7.99 7.99 0 0 1-.064.397zm-8.346-1.458l.071.178c-.047.155-.586.377-.586.377l-.116-.252a.84.84 0 0 1 .278-1.002l.873-.529.925.195a.81.81 0 0 0 .158.51l-.97-.185-.581.399c-.097.067-.104.194-.052.309zm8.492 2.914l.266-1.379.044-.256a1.16 1.16 0 0 0 .242.073c.099.019.191.028.275.028.407 0 .643-.212.801-.394l.205-.237-.167-.259-.669-1.004-.163-.24c-.323-.48-.728-1.083-1.54-1.083l-.073.002c-.134.009-.249.034-.341.069a1.85 1.85 0 0 0-.791-.18c-.336 0-.619.092-.807.155l-.141.04-1.518-.149c-.019-.003-.082-.04-.156-.13v-.007l.329-.131c-.092-1.087-1.142-1.755-1.728-1.981-.026-.109-.078-.218-.17-.306l-.327-.308-.287.342-.141.174-2.124-.867 1.382 1.724-.546.821c-.2.211.021.421.021.421l.563.385.584-.216c.021 0 .038.005.057.007-.028.088-.064.434-.089.53l-1.014-.199-1.066.598a1.25 1.25 0 0 0-.419 1.513l.118.257.169.363.372-.154c-.12.418-.066.822.174 1.088l.527.662.33-.352c.097-.097.412-.447.509-.748l.071-.23-.162-.176-.026-.031.181-.297 1.323.309.297.067.158-.259.087-.142c.016-.029.021-.035.082-.035a.66.66 0 0 1 .144.016c.499.093.96.14 1.368.14.396 0 .633-.015.916-.109l.735.833-.434 1.334-.019.081c-.824.066-1.226.245-1.711.727-.704-.694-1.203-.767-3.096-.767-2.265 0-3.8-1.32-3.8-3.427v-5.153h13.789l.003 5.153c.002 1.71-1.008 2.902-2.599 3.291zm2.981-16.758c-.21.553-.386 1.152-.386 1.748l.002 3.845c-.808-.135-.904-1-.907-1.038l-.016-.176-.174-.015a1.23 1.23 0 0 1-.781-.371c-.396-.394-.398-1.033-.396-1.038-.005.033-.436.632.064 1.287.21.276.514.446.909.513.092.48.452 1.158 1.3 1.261v1.883H49.75c-1.101-.608-.635-1.679-.612-1.724l.094-.204-.21-.079c-1.191-.439-.864-1.62-.847-1.671l.049-.173-.162-.076c-.984-.453-.85-1.674-.838-1.724-.303.244-.412.741-.203 1.228l-.429.453a1.33 1.33 0 0 1-1.05-1.232l-.002-.143-.134-.052c-.398-.147-.671-.366-.805-.662-.151-.326-.097-.669-.056-.833.117.026.233.045.344.053a3.36 3.36 0 0 0 .351.019h.016a3.33 3.33 0 0 0 .349-.019c.635-.062 1.346-.333 2.086-1.062l4.828.002zm-3.717-3.887l.942.544h.014l.236.136a2.78 2.78 0 0 0-1.279.758c-.012.01-.024.024-.036.036l-.23.264-.043.055-.207.289a.54.54 0 0 1-.035.05l-.228.368c-.671 1.149-1.742 1.835-2.695 1.836s-2.022-.687-2.693-1.836l-.224-.363-.044-.064-.2-.276-.05-.064-.223-.257c-.016-.012-.026-.028-.042-.041-.343-.347-.748-.61-1.281-.755l.24-.136h.011l.942-.544.968-.551 2.587 1.399.005-.005.007.005 2.587-1.399.97.551zm-1.276-1.159l-2.062 1.08v-4.371l2.797-.943-.735 4.234zm-2.286-3.771l-3.066-1.204c.261-.613 1.464-1.135 3.066-1.137s2.808.523 3.067 1.137l-3.067 1.204z"/></g></svg>