<svg xmlns="http://www.w3.org/2000/svg" viewBox="0 0 180 35"  xmlnsV="https://vecta.io/nano"><path d="M49.33 35a17.87 17.87 0 0 1-12.51-4.51c-3.92-3.48-5.45-8-5.4-13.13a17 17 0 0 1 4-11.36A17 17 0 0 1 45.05.5a18.94 18.94 0 0 1 13.59 2c5.31 3 8 7.77 8.28 13.8.27 5.32-1 10.1-5 13.89A18 18 0 0 1 49.33 35m.09-26.45a7.89 7.89 0 0 0-7.88 5.76 10.76 10.76 0 0 0 0 6.52 7.41 7.41 0 0 0 6.3 5.58A7.44 7.44 0 0 0 55.76 23a10.09 10.09 0 0 0 .45-10.14 7.26 7.26 0 0 0-6.8-4.29m75.12 12.24l-5.13.31v13.1h-9.63V1.08h9.5v12.24c2.21 0 4.19.18 6.17-.49a7.22 7.22 0 0 0 5-5c.63-2.19.9-4.47 1.4-6.84h8.82c.18 6.84-1.17 12.87-7.74 16.57.27.49.45.89.72 1.3l8.1 13.45a16.61 16.61 0 0 1 .81 1.92h-10.18l-7.83-13.4m43-6.43a20.2 20.2 0 0 0 0-2.86 3.89 3.89 0 0 0-2.93-3.08 18.14 18.14 0 0 0-7.88-.76 19.32 19.32 0 0 0-7.16 1.88l-1.26-6.88a22.59 22.59 0 0 1 6.12-1.94 31.37 31.37 0 0 1 13.37.18c4.68 1.16 8 3.84 8.87 8.76a20.52 20.52 0 0 1 .23 3.71v12.38c.18 2.55.41 2.81 3 3.22v5.27c-2.61.63-5.27 1-7.92-.22a4.72 4.72 0 0 1-2.52-3.48 6.3 6.3 0 0 1-.14-1.07c-3.2 4.56-7.74 5.67-12.78 5.41-5.63-.31-9.95-4.07-10.76-8.49-1.31-7.19 2.39-12.55 9.68-13.67 4.73-.67 6-.36 12 1.65m-.18 6.25a11.11 11.11 0 0 0-5.09-1.83 6.94 6.94 0 0 0-5.36 1.12 4.27 4.27 0 0 0-1.49 4.78 4 4 0 0 0 3.6 2.68 9.92 9.92 0 0 0 4.82-.71c2.7-1.16 3.78-3 3.51-6M92.81 1h9.36v33.27h-9.45V23.64c-1.76.4-3.33.85-5 1.07-4.32.58-8.42 0-11.88-2.77a14.1 14.1 0 0 1-4.77-8.49c-.81-4.07-.32-8.22-.45-12.37h9.77v1.47c0 2.68 0 5.36.14 8.09a6.1 6.1 0 0 0 6.39 5.9 9.65 9.65 0 0 0 5.9-1.79zm-73.6 33.14h-9.4V9.52H0V1.08h29v8.35h-9.79z" fill="#020202"/></svg>