<svg xmlns="http://www.w3.org/2000/svg" viewBox="0 0 180 37"  fill="#06387d" xmlnsV="https://vecta.io/nano"><path d="M168.21 23.64h-3.69V20h-1.89v9.25h1.89v-4h3.69v4h1.93V20h-1.93zM157.41 20h-1.71l-3.7 9.24h2l.77-2h4l.77 2h2L157.86 20zm-2.07 5.55l1.35-3.75 1.31 3.74zM180 29.24l-4-5.05 3.87-4.2h-2.34l-3.33 4V20h-1.89v9.25h1.89v-4.66l3.51 4.65zm-31.45-5.69h-2v-1.94h4V20h-5.94v9.25h3.83a2.83 2.83 0 0 0 2.83-2.84 2.86 2.86 0 0 0-2.79-2.89zm-.5 4.2h-1.48V25h1.48a1.33 1.33 0 0 1 1.35 1.35 1.42 1.42 0 0 1-1.35 1.4zM38.07 30.82h-4.36l2-3.52-5-8.8h4.46l2.56 5.19 2.56-5.19h4.36zm55.08 0H87.7c-3 0-5.4-2.48-5.4-6 0-4 2.39-6.32 5.4-6.32h5.45v3.07h-3.51c-2.11 0-3.33.63-3.33 3.2s1.21 3 3.33 3h3.51zm14.35 0h-4.1v-8.71l-4.59 8.71H94V18.5h4v8.39l4.59-8.39h4.9zM78.16 18.5h-4.45l-4.32 10.2-4.28-10.2h-4.5l-5.17 12.32h4.23l.95-2.57h4.5l.95 2.57h6.66L76 21.93l3.15 8.89h4.23zM61.6 25.45l1.3-3.52 1.26 3.52zm-8.32-6.95H45v12.32h4v-3.61h4.32c4.19 0 4.19-3.7 4.19-4.51a3.8 3.8 0 0 0-4.23-4.2zm-1.39 5.69H49v-2.62h2.88c.45 0 1.62 0 1.62 1.26s-1.16 1.36-1.61 1.36zm64.44-1h-4v-1.62H120V18.5h-11.77v12.32h8.15c4.18 0 4.18-2.48 4.18-3.88s-.01-3.79-4.23-3.79zm-.63 4.78h-3.42V26h3.42c.9 0 .9.63.9.9s0 1.03-.9 1.03zM12.83 12.32a2 2 0 0 1 .9.14l-.09-8.35h1a78.14 78.14 0 0 0 .36 8.57 12.25 12.25 0 0 1 4 22.34c-.09-.09-.18-.27-.32-.41C15 29.92 14.08 23 13.81 16.92c.5.14 1 .18 1.53.27A26 26 0 0 0 22 31a8.26 8.26 0 0 0-.54-11 12 12 0 0 0-5.89-3.52 12.85 12.85 0 0 0-3.28-.41 13.64 13.64 0 0 0-3.29.4C4.32 17.64.77 21.34.77 25.76A8.63 8.63 0 0 0 2.56 31a25.66 25.66 0 0 0 6.57-13.85c.5-.09 1-.14 1.62-.27-.27 6.09-1.17 13-4.81 17.64h0a2.39 2.39 0 0 1-.4.5 12.33 12.33 0 0 1 4.14-22.39c.32-6.27.27-8.57.27-8.57h1l-.09 8.39a1.89 1.89 0 0 1 .85-.14V0h1.08zm0 4.51c.13 5.82.5 13.09 2.43 18a12.68 12.68 0 0 0 .77 1.58 15 15 0 0 1-3.78.59 14.41 14.41 0 0 1-3.78-.59c.32-.63.58-1.22.85-1.8 1.75-4.83 2.25-12 2.34-17.78zm119.29-1.53h.88v18.59h-.85z"/></svg>