<svg xmlns="http://www.w3.org/2000/svg" viewBox="0 0 180 53"  xmlns:v="https://vecta.io/nano"><path d="M.5 45.9a.47.47 0 0 0-.5.5v6c0 .4.2.6.5.6h33.1a.47.47 0 0 0 .5-.5v-6a.47.47 0 0 0-.5-.5L.5 45.9m32.4-13.2L22.8 5.2c-1-2.6-2.1-5.2-5.7-5.2s-4.8 2.6-5.7 5.2L1.3 32.7c-.1.3.1.6.3.7l5.5 2.1s.5 0 .7-.3v-.1l2.4-6.5h14l2.4 6.5c.1.3.4.4.7.3s5.2-2 5.5-2.1c.1 0 .2-.3.1-.6.1.1 0 0 0 0h0zM12.4 22.5l4.7-14.1 4.7 14.1h-9.4zm126 1.3a10.68 10.68 0 0 0-2.5.3v-4.2l2.8-.2c1.2 0 2.4.1 3.6.2l.1-2.5c-1.6-.3-3.2-.5-4.9-.5s-3.4.3-5 .7v15.7c1.7.6 3.4.9 5.2.9 4 0 6-2.1 6-5.5 0-2.8-1.7-4.9-5.3-4.9h0zm-.5 7.8c-.7 0-1.3 0-2-.2v-4.8c.7-.2 1.3-.2 2-.2 1.7.1 2.5.9 2.5 2.5.2 1.3-.7 2.5-2 2.6-.2.2-.4.2-.5.1h0zm-34.2-9.8c-.7 0-1.4.1-2 .4V17h-3.1v5.1c-.6-.3-1.3-.4-2-.4-3.2 0-5.2 2-5.2 6.3 0 4 1.8 6.2 4.7 6.2.9 0 1.8-.2 2.5-.6v4.3h3.1v-4.2a5.42 5.42 0 0 0 2.5.6c2.7 0 4.7-2.2 4.7-6.2 0-4.4-2-6.3-5.2-6.3h0zm-5.1 9.5c-.5.2-1.1.3-1.6.2-1.7 0-2.3-1.3-2.3-3.5 0-2.4.7-3.7 2.2-3.7.6 0 1.2.1 1.8.4l-.1 6.6zm4.8.3c-.5 0-1.1-.1-1.6-.2v-6.6c.5-.3 1.1-.4 1.8-.4 1.4 0 2.2 1.2 2.2 3.6-.1 2.2-1 3.6-2.4 3.6h0zM77.8 34V22.5c-1.6-.5-3.2-.8-4.8-.7-1.6 0-3.2.2-4.8.7v5.9c.1.9 0 1.7-.2 2.6-.2.6-.5 1.1-1 1.4l.8 1.8c2.5-.7 3.5-1.8 3.5-5.3v-4.4a9.15 9.15 0 0 1 3.3 0V34h3.2zm41.8-4.7V26c0-1.8-.2-2.4-.7-3-.6-.9-1.7-1.2-3.7-1.2-1.3 0-2.7.2-4 .5l.5 2.3 2.5-.2c2.1 0 2.3.3 2.3 1.9v.6c-.5-.1-1.1-.2-1.6-.2-3.2 0-4.8 1.5-4.8 4.1 0 2.4 1.8 3.7 4 3.7.8 0 1.6-.1 2.3-.4l1.1-.6c.3.5.7.8 1.2 1l2.1-1.5c-.7-1-1.1-2.3-1-3.6l-.2-.1zm-4.6 2.5c-1.1 0-1.8-.5-1.8-1.6s.8-1.6 2.4-1.6c.3 0 .6 0 .9.1v.9c0 .6 0 1.3.1 1.9-.4.2-1 .3-1.6.3zm39.5-2.5V26c.1-1-.1-2.1-.6-3-.6-.9-1.7-1.2-3.7-1.2-1.3 0-2.7.2-4 .5l.5 2.3 2.5-.2c2.1 0 2.3.3 2.3 1.9v.6c-.5-.1-1.1-.2-1.6-.2-3.1 0-4.8 1.5-4.8 4.1 0 2.4 1.8 3.7 4 3.7.8 0 1.6-.1 2.3-.4l1.1-.6c.3.5.7.8 1.2 1l2-1.5c-.8-1-1.1-2.3-1-3.6l-.2-.1zm-4.7 2.5c-1.1 0-1.8-.5-1.8-1.6s.8-1.6 2.4-1.6c.3 0 .6 0 .9.1v.9c0 .6 0 1.3.1 1.9-.4.2-1 .3-1.6.3h0zm-64.2-6.2c-.7 0-1.4.1-2 .3V22h-3.2v11.4c1.5.6 3 .9 4.6.9 3.3 0 5.1-1.7 5.1-4.6 0-2.5-1.6-4.1-4.5-4.1zm-.7 6.3c-.5 0-.9 0-1.3-.2v-3.4c.4-.1.9-.2 1.4-.2 1.4 0 1.9.7 1.9 1.9s-.5 1.9-2 1.9zM167 34V22.1h-3.2v4.5h-3.6v-4.5h-3.1V34h3.1v-4.9h3.6V34h3.2zm13 0l-2.1-4.5c-.4-.8-.9-1.6-1.9-1.8h0c.6-.1 1.2-.5 1.7-1.7s.7-1.4 1-1.7c.2-.2.5-.3.7-.2l.2-2.1h-1.5a2.61 2.61 0 0 0-1.7.7l-.9 1.3-.9 1.7c-.3.6-.4.9-1.3.9h-.5v-4.7h-3.1V34h3.1v-4.9h.4c.9 0 1 .2 1.5 1.2l1.7 3.7h3.6zM60.6 17.3c-.7-.2-1.4-.3-2.1-.3-.6 0-1.2.1-1.8.3L50.9 34h3.5s.5-1.5 1-3.3h6l.9 3.3H66l-5.4-16.7zm-4.3 10.6h0l1.2-3.9 1-3.5h.1s.5 2.2 1 3.5c.2.5 1.1 3.9 1.1 3.9h-4.4zM126 26a1.95 1.95 0 0 0-2.3 1.6 1.95 1.95 0 0 0 1.6 2.3h.7a1.95 1.95 0 0 0 2.3-1.6 1.95 1.95 0 0 0-1.6-2.3h-.7z" fill="#ee3524"/></svg>