<svg xmlns="http://www.w3.org/2000/svg" viewBox="0 0 733 69.8"  xmlns:v="https://vecta.io/nano"><g fill-rule="evenodd" fill="#004523"><path d="M19.4 33.2v21.2h7.2c1 .1 1.8-.5 1.8-2V35.3c0-1.4-.4-2.1-1.8-2.1h-7.2M0 61.8V.1L43.5 0v7.5l-24-.1v18.5h9.8c4.7 0 18.6-.2 18.6 8.4v19.1c.1 7.1-11.2 8.3-18.4 8.4H0zM83.8 8.9l-5.3 28.7h11.4L84.8 8.9h-1m-28 52.9L69.8 0h28.9l14.1 61.8H93.9l-3-15.5H77.5l-2.9 15.5H55.8zM122.5 0h19.1v24.9l8.7-.1V0h19v61.8h-19V33.6h-8.7v28.1l-19.1.1V0zm61.3 0h18.6v25.1L214.7 0H233l-14.1 29 16.2 32.8h-17.9l-14.8-28v28h-18.6V0zM305 8.8l-5.3 28.7h11.5L306 8.8h-1m-28 53L291 0h28.9l14 61.8H315l-2.8-15.7h-13.5l-2.8 15.7H277zM424.2 8.9l-5.3 28.6h11.4l-5.2-28.6h-.9m-28 52.9l14-61.8h28.9l14.1 61.8h-18.9l-3-15.6h-13.4L415 61.8h-18.8zM587.8 8.9l-5.2 28.6 11.4-.1-5.3-28.5h-.9M560 61.8L574 0h28.9L617 61.8h-19l-2.9-15.6h-13.4l-3 15.6H560zM482.5 0v24.9h8.7V.1l19.1-.1v61.7l-19.1.1V33.6h-8.7v28.2h-19.1V.1l19.1-.1z"/><path d="M362 33.7v20.7h6.6c1.3 0 2.1-.8 2.1-1.8V36c0-1.4-.6-2.3-2.2-2.3H362m-18.5 28h0V0H371c18.4 0 17.9 6.2 17.9 9v12.8c0 1.9-.5 7.6-10.5 7.2v.6c8.1-.1 10.8 2.5 10.8 6.4v17c0 2.9-1.1 8.6-18.3 8.7h-27.4M362 7.5v17.7l6.5.1c1.6 0 2.2-.6 2.2-1.5V9.1c0-.9-.4-1.7-2.1-1.7H362v.1zM526.3 0h37.8v7.5h-19.2v54.3h-18.6V0zm117.6 7.5v25.1h8c3.2.2 3.2-1.1 3.4-2.6l-.1-20.2c.1-2.3-2.3-2.4-3.2-2.3h-8.1m-18.7 54.2V0h29c6.2 0 16.9 0 16.9 8.9v21.3c0 9.1-10.1 9.4-16.9 9.5h-10.3v22.1l-18.7-.1zm87.3-54.2h-10.9V48c0 3.1-.7 5.7-3.9 6.8v-.1l14.8-.1V7.5m-39.6 61.8V54.9l1.3-.1c8 0 9-4.2 9-6.4V0h45.2v54.7h4.6v14.6h-18.4v-7.5h-23.3v7.5h-18.4z"/></g><defs ><path  d="M61.8-71.7v.2c-.1.1-.1.1-.2.1-.1.1-.1.3-.1.4-.2.1 0 .2 0 .3v.2c0 .1 0 .3.1.4.1.2.3.4.4.5.2.1.4.6.6.6s.4-.1.5-.1c.2 0 .4 0 .6-.1s.1-.3.3-.5c.1-.1.3 0 .4-.1.2-.1.3-.3.4-.5v-.2c0-.1.1-.2.1-.3s-.1-.1-.1-.2v-.3c0-.2 0-.4-.1-.5-.4-.7-1.2-.9-2-.8-.2 0-.3.1-.4.2-.2.1-.1.2-.3.2-.1 0-.2.1-.2.2v.3c0 .1 0 .1 0 0"/><path  d="M69.4-64v.2c-.1.1-.1.1-.2.1-.1.1-.1.3-.1.4-.2.1 0 .2 0 .3v.2c0 .1 0 .3.1.4.1.2.3.4.4.5.2.1.4.6.6.6s.4-.1.5-.1c.2 0 .4 0 .6-.1s.1-.3.3-.5c.1-.1.3 0 .4-.1.2-.1.3-.3.4-.5v-.2c0-.1.1-.2.1-.3s-.1-.1-.1-.2v-.3c0-.2 0-.4-.1-.5-.4-.7-1.2-.9-2-.8-.2 0-.3.1-.4.2-.2.1-.1.2-.3.2-.1 0-.2.1-.2.2v.3"/><path  d="M8.2-56.3v.2c-.1 0-.2 0-.2.1-.1.1-.1.3-.1.4-.2.1 0 .2 0 .3v.2c0 .1 0 .3.1.4.1.2.3.4.4.5.2.1.4.6.6.6s.4-.1.5-.1c.2 0 .4 0 .6-.1s.1-.3.3-.5c.1-.1.3 0 .4-.1.2-.1.3-.3.4-.5v-.2c0-.1.1-.2.1-.3s-.1-.1-.1-.2v-.3c0-.2 0-.4-.1-.5-.4-.7-1.2-.9-2-.8-.2 0-.3.1-.4.2-.2.1-.1.2-.3.2-.1 0-.2.1-.2.2v.3c-.1 0-.1 0 0 0"/><path  d="M69.4-18.1v.2c-.1.1-.1.1-.2.1-.1.1-.1.3-.1.4-.2.1 0 .2 0 .3v.2c0 .1 0 .3.1.4.1.2.3.4.4.5.2.1.4.6.6.6s.4-.1.5-.1c.2 0 .4 0 .6-.1s.1-.3.3-.5c.1-.1.3 0 .4-.1.2-.1.3-.3.4-.5v-.2c0-.1.1-.2.1-.3s-.1-.1-.1-.2v-.3c0-.2 0-.4-.1-.5-.4-.7-1.2-.9-2-.8-.2 0-.3.1-.4.2-.2.1-.1.2-.3.2-.1 0-.2.1-.2.2v.3c0 .1 0 0 0 0"/><path  d="M61.8-10.4v.2c-.1.1-.1.1-.2.1-.1.1-.1.3-.1.4-.2.1 0 .2 0 .3v.2c0 .1 0 .3.1.4.1.2.3.4.4.5.2.1.4.6.6.6s.4-.1.5-.1c.2 0 .4 0 .6-.1s.1-.3.3-.4c.1-.1.3 0 .4-.1.2-.1.3-.3.4-.5v-.2c0-.1.1-.2.1-.3s-.1-.1-.1-.2v-.3c0-.2 0-.4-.1-.5-.4-.7-1.2-.9-2-.8-.2 0-.3.1-.4.2-.2.1-.1.2-.3.2-.1 0-.2.1-.2.2v.2"/><path  d="M61.8-2.8v.2c-.1.1-.1.1-.2.1-.1.1-.1.3-.1.4-.2.1 0 .2 0 .3v.2c0 .1 0 .3.1.4 0 .2.2.4.4.5s.4.6.6.6.4-.1.5-.1c.2 0 .4 0 .6-.1s.1-.3.3-.5c.1-.1.3 0 .4-.1.2-.1.3-.3.4-.5v-.2c0-.1.1-.2.1-.3s-.1-.1-.1-.2v-.3c0-.2 0-.4-.1-.5-.4-.7-1.2-.9-2-.8-.2 0-.3.1-.4.2-.2.1-.1.2-.3.2-.1 0-.2.1-.2.2v.3c0 .1 0 0 0 0"/><path  d="M31.1-2.8v.2c-.1.1-.1.1-.2.1-.1.1-.1.3-.1.4-.2.1 0 .2 0 .3v.2c0 .1 0 .3.1.4.1.2.2.4.4.5s.4.6.6.6.4-.1.5-.1c.2 0 .4 0 .6-.1s.1-.3.3-.5c.1-.1.3 0 .4-.1.2-.1.3-.3.4-.5v-.2c0-.1.1-.2.1-.3s-.1-.1-.1-.2v-.3c0-.2 0-.4-.1-.5-.4-.7-1.2-.9-2-.8-.2 0-.3.1-.4.2-.2.1-.1.2-.3.2-.1 0-.2.1-.2.2v.3c0 .1 0 0 0 0"/></defs></svg>