<svg xmlns="http://www.w3.org/2000/svg" width="189" height="43"  xmlns:v="https://vecta.io/nano"><path d="M18.139 14.45v16.757h2.651v6.868h-3.194v-4.086H3.194v4.086H0v-6.868c1.989-.533 3.134-1.836 3.796-3.197.301-.711.542-1.658.663-3.02.316-2.331.356-4.572.361-8.666l.001-1.874h13.318zm44.231 0v20.063h-3.167V17.359h-7.449c0 6.546-.117 10.85-.997 13.517-.469 1.455-1.642 3.334-3.109 4.364l-2.288-2.364c1.29-1.03 1.936-2 2.464-3.334.411-1.091.469-2.485.587-5.213l.059-9.88H62.37zm89.289 0v8.214h10.422V14.45h3.294v19.845h-3.294v-8.574h-10.422v8.574h-3.294V14.45h3.294zm21.689 0c-.047 1.329-.056 3.334-.059 6.046l-.001 2.288h3.603l7.383-8.334h4.075l-8.505 9.653L189 34.295h-4.548v-.06l-7.619-8.454h-3.544l.001 2.755.058 5.699H170.1c.044-1.466.055-3.655.058-6.568l.001-2.32-.001-4.329-.058-6.568h3.248zm-40.269-.945c4.408 0 7.625 2.84 7.625 6.648h0v9.851c0 .846.536 1.45 1.37 1.45.536 0 .953-.363 1.311-.907h0l2.145 1.994c-.953 1.088-2.204 1.753-3.693 1.753-2.204 0-3.932-.786-4.289-2.599-1.728 2.055-3.872 2.599-6.553 2.599-3.812 0-6.255-2.055-6.255-5.198 0-3.203 2.323-5.318 6.255-6.164 1.251-.302 3.396-.544 6.434-.907h0v-1.511c0-2.297-1.906-3.989-4.587-3.989-1.787 0-3.217.665-3.932 1.571h0l-2.204-2.236c1.37-1.45 3.634-2.357 6.374-2.357zM120.459 5l2.391 2.411a9.08 9.08 0 0 1-3.407 2.11c-1.494.482-3.467.784-5.977.904h0l-.246.004c-3.594.122-6.518 2.909-6.927 6.446 1.733-1.628 4.065-2.592 6.635-2.592 5.439 0 9.923 4.461 9.923 10.006s-4.423 10.006-9.922 10.006-9.922-4.461-9.922-10.006h0v-6.631l.007-.287c.206-5.713 4.81-10.262 10.454-10.262h0l.342-.018c2.114-.11 3.296-.184 4.261-.585.897-.422 1.674-.844 2.391-1.507h0zm-87 8.505c5.359 0 10.011 3.928 10.011 9.851 0 .786-.059 1.511-.177 2.176H26.746c.589 3.626 3.298 5.802 7.008 5.802 2.532 0 5.005-1.269 6.065-3.264l2.238 2.236c-1.767 2.538-4.77 3.989-8.303 3.989-5.771 0-10.129-4.291-10.129-10.395s4.122-10.395 9.834-10.395zm55.909.945c5.404 0 9.857 4.483 9.857 9.923 0 5.499-4.394 9.923-9.857 9.923h0-13.361c-5.463 0-9.857-4.423-9.857-9.923s4.394-9.922 9.857-9.922h0zm-.119 2.929c-3.86 0-6.948 3.108-6.948 6.994s3.088 6.994 6.948 6.994 6.948-3.108 6.948-6.994-3.088-6.994-6.948-6.994zm48.179 7.669c-3.038.363-5.183.544-6.553.907-1.787.544-2.8 1.511-2.8 2.84 0 1.632 1.311 2.478 3.217 2.478 2.442 0 4.706-1.209 6.136-3.203h0zM14.945 17.233h-6.87c-.121 8.349-.783 11.901-3.194 13.974h10.064V17.233zm97.983.305c-3.706 0-6.695 3.014-6.695 6.751s2.989 6.751 6.695 6.751 6.695-3.014 6.695-6.751-2.989-6.751-6.695-6.751zm-86.181 4.851H40.29c-.177-1.813-1.119-3.264-2.238-4.351-3.533-3.324-11.13-1.209-11.306 4.351z" fill="#f65e64" fill-rule="evenodd"/></svg>