<svg xmlns="http://www.w3.org/2000/svg" viewBox="0 0 180 28"  xmlns:v="https://vecta.io/nano"><path d="M104.26 8h10.35v2.33h-.76a1.34 1.34 0 0 0-1.35-1.19h-1.85V20h-2.56V9.1h-1.89a1.34 1.34 0 0 0-1.35 1.19h-.76V8zM126 8h1.89v12h-2.52v-8.38L119.16 20h-1.89v-9.75a1.49 1.49 0 0 0-1.17-1.6v-.6h3.69v8.42zM71.73 20h-3.24l-2.34-4.44s-.68-1.37-1.44-1.37h-.95v5.76H61.2v-9.7a1.4 1.4 0 0 0-1.26-1.51v-.69h3.78v5h1.13a2 2 0 0 0 1.4-1.1C68.26 8.65 68 8 68.85 8h2.52v.78c-1.71 0-2.25 3.61-4 4.76.85.32 1.13 1.1 3 4.48 0 0 .45 1.14 1.35 1.14V20zm61.47-7.27h6.12v-.64a3.06 3.06 0 1 0-6.12 0v.64zm8.28 4.67a6.32 6.32 0 0 1-5.22 2.79c-3.1 0-6.12-2.47-6.12-5.72v-.69a5.93 5.93 0 0 1 6.12-6 6.05 6.05 0 0 1 6 6.18h-9v2a3.2 3.2 0 0 0 3.31 3.04 5.44 5.44 0 0 0 3.92-1.74l1 .09zM80.55 7.82a4.51 4.51 0 0 0-3.46 1.51V8.05h-3.74v.69a1.45 1.45 0 0 1 1.17 1.51v15.23h2.56v-6.77a4.1 4.1 0 0 0 3.24 1.46 5.65 5.65 0 0 0 5.58-5.9v-.69c0-3.57-2.07-5.76-5.35-5.76m2.39 8.05a3 3 0 0 1-2.65 3.07H80a3 3 0 0 1-2.88-2.2v-5.21A3 3 0 0 1 80 9h.5s2.39.14 2.43 3.07zM41.63 7.82a6 6 0 0 0-6.26 5.76v1c0 2.65 2.56 5.58 6.26 5.58 3.46 0 6.3-2.61 6.3-5.67v-.78c0-3.07-2.34-5.9-6.3-5.9m3.29 8A3.24 3.24 0 0 1 41.67 19a3.18 3.18 0 0 1-3.19-3.25V12a3.14 3.14 0 0 1 3.19-3.07A3.1 3.1 0 0 1 44.91 12zM102.51 8h-3.73v.69a1.53 1.53 0 0 1 1.26 1.6V20h2.52zm-11 4.58V8H87.8v.69a1.34 1.34 0 0 1 1.13 1.51V20h5.76c2.25 0 3.87-1.42 3.87-3.34v-.59c0-2.15-1.58-3.52-4-3.52h-3.07zm0 6.22v-5h2.16a2.18 2.18 0 0 1 2.11 2.33v.5a2.23 2.23 0 0 1-2.18 2.17zM48.38 8h10.35v2.33H58a1.34 1.34 0 0 0-1.35-1.19h-1.88V20H52.2V9.1h-1.8a1.34 1.34 0 0 0-1.35 1.19h-.76V8z" fill="#58595b"/><path d="M13.77 0A13.89 13.89 0 0 0 0 14a13.89 13.89 0 0 0 13.77 14 13.89 13.89 0 0 0 13.77-14A13.89 13.89 0 0 0 13.77 0m-2.92 20.86a1.25 1.25 0 0 1 .58.78 1.73 1.73 0 0 1-.13 1 1 1 0 0 1-1 .55 1.62 1.62 0 0 1-.67-.19L9 22.69a9 9 0 0 1-4.55-8v-1.38A8.79 8.79 0 0 1 9 5.35L9.67 5a1.62 1.62 0 0 1 .67-.14 1.08 1.08 0 0 1 1 .55 1.73 1.73 0 0 1 .13 1 1.09 1.09 0 0 1-.63.69 4.9 4.9 0 0 0-2.7 4.39v5a4.85 4.85 0 0 0 2.7 4.39m12.24-6.18a8.84 8.84 0 0 1-4.55 8l-.63.32a1.62 1.62 0 0 1-.68.14 1.08 1.08 0 0 1-1-.55 1.73 1.73 0 0 1-.13-1 1 1 0 0 1 .58-.78 4.8 4.8 0 0 0 2.7-4.35v-4.95a4.73 4.73 0 0 0-2.7-4.35 1.25 1.25 0 0 1-.58-.78 1.73 1.73 0 0 1 .13-1 1 1 0 0 1 1-.55 1.62 1.62 0 0 1 .68.14l.63.32a9 9 0 0 1 4.59 8z" fill="#00bbe4"/><path d="M160,14.18h-.67v2.1h.63c.77,0,1.26-.37,1.26-1.05s-.45-1.05-1.22-1.05M159.88,17h-1.44V11.07h3l.09.78h-2.3V13.5H160c1.26,0,2,.59,2,1.69S161.14,17,159.88,17m4.68-2.52h1.89L165.51,12Zm.54-3.48h.77l2.25,5.86-.77.14-.67-1.88H164.3l-.63,1.74h-.85l2.3-5.86Zm8.05,6V14.23h-3V17h-.81V11.07h.81v2.47h3V11.07h.77V17Zm5.72-5.95-2.43,2.65V11.07h-.81V17h.81V14l2.7,3.07.85-.23-2.7-3,2.57-2.75ZM150.12,0h.5V28h-.5Z" fill="#58595b"/></svg>