<svg xmlns="http://www.w3.org/2000/svg" viewBox="0 0 180 36"  xmlns:v="https://vecta.io/nano"><path d="M0,18A17.9,17.9,0,0,1,17.77,0V6.47A11.51,11.51,0,1,0,29.16,17.9H35.6A17.8,17.8,0,1,1,0,18" fill="#016438"/><path d="M9.95,18a7.88,7.88,0,1,1,7.87,8,7.93,7.93,0,0,1-7.87-8" fill="#4fae2e"/><path d="M23.31,7.83a4.52,4.52,0,1,1,4.55,4.6,4.56,4.56,0,0,1-4.54-4.6" fill="#016438"/><path d="M162.23 12.39l-.54 2.73-2.88 13.76-.27.23-3.55.09-.19-.2 1.44-6.11.4-2h-7.59l-1.62 8-.27.23-3.55.09-.18-.23 1.44-6.11.58-2.64a83 83 0 0 0 1.67-8.93l.22-.23a36.81 36.81 0 0 0 3.69-.64l.18.23-.36 1.78-.54 2.73-.58 2.6h7.65l1.13-6.43.22-.23a34.72 34.72 0 0 0 3.69-.64l.18.23-.36 1.69m-42.89 7.93a14.6 14.6 0 0 0 .4-3.05c0-3.6-2.3-4.19-3.6-4.19-5.54 0-6.21 8.66-6.21 10 0 2.83 1.66 4.1 3.6 4.1 3.74 0 5.13-3.92 5.81-6.84m3.65 1.12c-.77 3.05-2.92 8.34-9.54 8.34-4.68 0-7.25-2.46-7.25-7.29a16.79 16.79 0 0 1 .14-2.05 2.31 2.31 0 0 1 .09-.55c1.26-8 4.68-15.63 12.24-15.68a23.33 23.33 0 0 0 4.41-.46L122.58 7a23.1 23.1 0 0 1-4.9.55 4.8 4.8 0 0 0-3.46 1.37 6.64 6.64 0 0 0-.9 1.14 4.92 4.92 0 0 0-.5 1 10.88 10.88 0 0 1 3.33-.5c4.59 0 7.33 2.6 7.33 7.2a15.88 15.88 0 0 1-.5 3.78m45.27-3.33c.85-.73 1.3-1.18 2.47-2.32s4.18-4.33 4.77-4.92l.4-.23h4l.11.26c-.36.32-.54.46-1.93 1.64-.54.46-.9.82-1.58 1.41l-4.55 4.24 5.45 10.44-.22.27-3.87.09-.27-.23c-.9-2.19-1.17-2.69-2.43-5.29l-2.43-5-2.12 10.21-.23.23-3.55.09-.18-.23 1.44-6.11.54-2.64a83 83 0 0 0 1.67-8.93l.23-.23a34.72 34.72 0 0 0 3.69-.64l.18.23-.36 1.78-.55 2.67-.67 3.1m-30.92 6.5a7.38 7.38 0 0 1-1.17.91 5.84 5.84 0 0 1-3.06.82c-3.2 0-4.1-2.73-4.1-4.42 0-.18.09-4.74 3.73-7.29a9.7 9.7 0 0 1 5.53-1.5h1.57l-2.5 11.48M144 10.75l-.18-.27h-4.81c-3.24 0-7.74.23-11 4.1a12.9 12.9 0 0 0-2.79 7.61c0 4.42 2.93 7 6.48 7a7.42 7.42 0 0 0 5.13-1.82l-.22 1.41.18.27 3.28-.09.27-.23c.72-4.24.95-5.56 2.16-11l1.5-6.98z" fill="#4fae2e"/><path d="M51.53 29.71c-3.82 0-9.27-1.23-7.29-10.12.76-3.33 3-10.44 12.42-10.44 9.13 0 7.78 7.56 7.2 10.25-1.72 7.53-6.26 10.31-12.33 10.31zm1.21-4c2.66 0 3.91-2.83 4.72-6.47.59-2.55 1.17-6.29-2-6.29-2.74 0-4 2.69-4.77 6.29-.69 3.45-.92 6.5 2.05 6.5zm21.06 3.54h-5.85l-.23-.23c.36-1.18 1.17-4.37 2-8.29l1.58-7.2c-1.49 0-3.74 0-4.86.09l-.18-.27.95-3.65.31-.18 7.7.09c3.65 0 7.15-.09 7.92-.14l.27.18c-.27.87-.76 2.69-1 3.65l-.36.23h-4.64l-1.71 7.43c-.72 3.19-1.3 6.11-1.62 8l-.31.32zM94.19 14h-3.1l-1.58 6.84L87.75 29l-.36.23h-5.94l-.22-.23 2.25-9.8 2-9.39.31-.27 8.86.09c3.87 0 7.56-.14 9.54-.14l.18.23c-.27 1-1.35 5.79-2.43 10.53l-1.85 8.7-.27.23h-6l-.18-.18 1.85-8 1.53-6.93h-2.84z" fill="#016438"/></svg>