<svg xmlns="http://www.w3.org/2000/svg" width="400" height="283.952" viewBox="0 0 400 NaN"  fill-rule="evenodd" xmlns:v="https://vecta.io/nano"><path d="M61.036 110.372L45.41 126v63.488h31.537l15.626-15.628 15.626-15.977c0-.275-3.32-.35-15.557-.35H77.085v-47.021l-.207-15.768c-.119 0-7.247 7.033-15.842 15.628m204.556-1.436c-38.573 4.168-39.484 60.861-1.06 66.002 11.254 1.506 24.714-4.007 30.568-12.519l.592-.861-10.382-10.332-.45.701c-6.857 10.696-24.227 10.444-29.714-.43-7.382-14.63 3.602-30.445 18.675-26.892 3.137.739 9.181 4.397 9.76 5.906.298.776.869.322 5.813-4.628l5.015-5.021-.953-1.112c-6.303-7.347-17.985-11.881-27.864-10.814m-94.324 33.18v31.675h16.819v-48.773h24.667v48.773h16.819v-63.35h-58.305v31.675m129.783 0v31.675l15.347-.006c20.957-.009 23.889-.313 29.072-3.017 12.756-6.657 12.327-27.82-.691-34.054-4.821-2.309-7.557-2.706-18.71-2.718l-8.199-.009v-8.969h31.394v-14.577h-48.213v31.675m32.139 6.024c3.997 1.187 5.742 4.856 4.011 8.433-1.381 2.853-3.671 3.483-12.663 3.483h-6.668v-12.334h6.956c5.349 0 7.283.097 8.364.418" fill="#2c2c84"/><path d="M92.571 110.232L77.085 126.07c0 .274 3.32.349 15.557.349h15.557v63.208l31.675-31.671V94.744h-31.817l-15.486 15.488" fill="#eb5314"/></svg>