<svg xmlns="http://www.w3.org/2000/svg" width="841.89" height="595.28"  xmlns:v="https://vecta.io/nano"><path fill="#245e2e" d="M168.333 244.13h384.811v108.316H168.333z"/><path fill="#fc0" d="M156.118 244.13h12.216v108.316h-12.216z"/><path d="M279.489 286.117c2.08 0 4.401.07 6.408 1.441 1.341.88 2.924 2.643 2.924 5.777 0 3.451-2.185 7.5-8.205 7.5h-5.073v9.436h-4.433v-24.153h8.379zm.176 11.195c.986 0 2.393.035 3.522-1.02.775-.706 1.199-1.9 1.199-2.923 0-.95-.391-2.077-1.163-2.748s-2.007-.986-3.385-.986h-4.296v7.677h4.123zm13.244-3.169c1.232-1.163 3.066-2.184 5.81-2.184s4.579 1.021 5.81 2.184c1.83 1.724 2.781 4.401 2.781 7.148s-.951 5.421-2.781 7.146c-1.23 1.164-3.063 2.184-5.81 2.184s-4.577-1.02-5.81-2.184c-1.832-1.726-2.783-4.4-2.783-7.146s.951-5.424 2.783-7.148m2.995 12.218c.385.459 1.268 1.301 2.814 1.301a3.56 3.56 0 0 0 2.814-1.301c.284-.316 1.343-1.727 1.343-5.07s-1.059-4.751-1.343-5.068a3.56 3.56 0 0 0-2.814-1.304c-1.547 0-2.43.844-2.814 1.304-.278.317-1.341 1.723-1.341 5.068s1.062 4.754 1.341 5.07m25.445-7.463c-.071-.916-.423-1.971-.878-2.643-.427-.632-1.273-1.337-2.677-1.337-1.377 0-2.293.705-2.853 1.653-.884 1.445-.951 3.696-.951 4.719 0 1.655.244 3.627.951 4.755.456.704 1.37 1.617 2.853 1.617 1.054 0 1.933-.419 2.604-1.335.527-.739.879-1.795.95-2.711l3.732.457c-.213 1.653-.949 3.487-2.253 4.683-1.095.984-2.784 1.866-5.179 1.866-2.671 0-4.4-1.057-5.419-2.011-1.374-1.301-2.676-3.622-2.676-7.286 0-3.415 1.16-5.458 2.075-6.549a8.12 8.12 0 0 1 6.129-2.817c2.217 0 4.049.778 5.209 1.973 1.164 1.161 1.868 2.92 2.113 4.506l-3.73.46zm17.475 0c-.068-.916-.419-1.971-.878-2.643-.422-.632-1.271-1.337-2.68-1.337-1.37 0-2.286.705-2.85 1.653-.877 1.445-.95 3.696-.95 4.719 0 1.655.247 3.627.95 4.755.457.704 1.374 1.617 2.85 1.617 1.06 0 1.938-.419 2.608-1.335.53-.739.881-1.795.949-2.711l3.734.457c-.212 1.653-.951 3.487-2.254 4.683-1.095.984-2.78 1.866-5.176 1.866-2.676 0-4.4-1.057-5.422-2.011-1.373-1.301-2.677-3.622-2.677-7.286 0-3.415 1.159-5.458 2.078-6.549 1.298-1.547 3.519-2.817 6.126-2.817 2.215 0 4.049.778 5.209 1.973 1.164 1.161 1.867 2.92 2.115 4.506l-3.732.46zm22.565 6.162c-.634 2.112-1.901 3.343-2.957 4.086-1.405.948-3.239 1.477-5.177 1.477-2.428 0-4.894-1.021-6.375-2.536-1.372-1.406-2.395-3.838-2.395-6.724 0-3.664 1.515-6.094 3.167-7.466.957-.809 2.751-1.937 5.46-1.937 3.418 0 5.602 1.583 6.76 3.203 1.233 1.689 1.799 4.053 1.799 6.094v.81h-12.746c0 .213-.037 1.831.598 3.132.948 1.975 2.676 2.465 3.875 2.465.95 0 2.145-.281 3.133-1.302.597-.635.846-1.233.948-1.792l3.91.49zm-4.155-5.673c0-1.017-.244-2.179-.776-2.957-.665-.984-1.863-1.654-3.168-1.654-1.337 0-2.5.67-3.204 1.515-.563.703-1.055 1.794-1.055 3.095h8.203zm21.828-7.073v17.956h-4.09v-14.928h-4.646l-.244 5.068c-.106 1.868-.246 5.81-1.832 7.959-.879 1.161-1.971 1.622-2.748 1.833-.455.141-.946.209-1.442.209-.35 0-.707-.035-1.052-.141v-3.099h.345c.531-.036 1.236-.315 1.694-.672 1.408-1.123 1.549-3.659 1.689-5.666l.246-6.618.037-1.901h12.043zm8.395 6.406h4.507c1.162 0 3.419.143 4.897 1.623 1.337 1.301 1.475 3.133 1.475 4.118 0 2.57-1.054 3.871-1.86 4.541-.285.213-1.62 1.27-4.158 1.27h-8.941v-17.957h4.081v6.405zm0 8.59h3.208c.776 0 1.617-.034 2.323-.631.42-.388.915-1.055.915-2.185 0-.984-.282-1.76-1.09-2.288-.706-.46-1.587-.528-2.148-.528h-3.208v5.632zm16.816-14.996l3.311 5.597 3.449-5.597h3.731l-5.246 8.131 6.232 9.825h-4.79l-4.083-6.76-4.293 6.76h-3.733l6.126-9.332-5.494-8.624zm14.633 1.829c1.232-1.163 3.063-2.184 5.809-2.184s4.578 1.021 5.809 2.184c1.832 1.724 2.783 4.401 2.783 7.148s-.951 5.421-2.783 7.146c-1.23 1.164-3.064 2.184-5.809 2.184s-4.577-1.02-5.809-2.184c-1.834-1.726-2.783-4.4-2.783-7.146s.949-5.424 2.783-7.148m2.993 12.218c.384.459 1.263 1.301 2.816 1.301a3.58 3.58 0 0 0 2.818-1.301c.279-.316 1.338-1.727 1.338-5.07s-1.059-4.751-1.338-5.068a3.58 3.58 0 0 0-2.818-1.304 3.56 3.56 0 0 0-2.816 1.304c-.279.317-1.339 1.723-1.339 5.068s1.06 4.754 1.339 5.07m13.585-9.192a6.3 6.3 0 0 1 2.887-3.978c.6-.384 2.254-1.232 5.07-1.232 1.762 0 3.557.316 4.896 1.06 1.973 1.088 2.461 2.673 2.461 3.8 0 1.232-.6 3.589-3.658 3.94v.074c1.053.142 2.219.598 2.92 1.336.637.67 1.127 1.797 1.127 2.992 0 1.797-1.055 3.381-2.395 4.262-1.619 1.058-3.842 1.197-5.49 1.197-1.66 0-4.191-.178-5.953-1.582-.984-.775-1.9-2.115-2.184-3.805l3.699-.633c.137.561.457 1.407.879 1.898.916 1.06 2.361 1.162 3.273 1.162.92 0 1.904-.103 2.678-.633.705-.492 1.057-1.16 1.057-2.042 0-.741-.145-1.338-.773-1.868-.813-.664-1.902-.771-2.924-.771h-1.865v-2.747h1.865c.701 0 1.723-.141 2.289-.422.738-.388 1.16-1.022 1.16-2.042 0-.566-.211-1.094-.738-1.515-.814-.671-1.973-.704-2.568-.704-.811 0-2.008.103-2.994.949-.422.354-.988 1.023-1.164 2.078l-3.555-.774zm36.602-6.828h-11.654v5.351h5.178c1.861 0 3.662.144 5.494 1.409 1.791 1.233 2.92 3.063 2.92 5.702 0 2.467-.916 4.296-2.076 5.461-1.76 1.758-3.77 2.006-5.883 2.006h-11.268v-24.154h17.289v4.225zm-11.654 15.704h4.541c.848 0 1.621-.037 2.43-.848.775-.774.883-1.651.883-2.319 0-.776-.213-1.552-.883-2.222-.809-.809-1.826-.883-2.57-.883h-4.4v6.272zm16.492-8.733c.563-2.43 2.148-3.661 3.1-4.225 1.406-.812 3.273-1.128 5.598-1.128 2.957 0 5.953.39 7.289 3.171.701 1.441.633 2.992.633 4.33v6.937c0 1.443.209 2.782.525 3.873h-5.104c-.143-.705-.246-1.656-.279-2.854-.674 1.197-2.291 3.207-6.023 3.207-1.654 0-3.346-.421-4.506-1.374-1.129-.917-1.832-2.394-1.832-4.013 0-1.797.773-3.946 3.836-5.215 1.973-.808 5.176-1.09 6.623-1.159l1.688-.072v-.39c0-.491-.031-1.548-.527-2.109-.666-.777-2.008-.812-2.539-.812-.734 0-1.615.072-2.357.529a2.79 2.79 0 0 0-1.266 1.831l-4.859-.527zm9.965 4.471c-1.76.142-3.521.32-4.508 1.549a2.52 2.52 0 0 0-.563 1.62c0 .774.387 1.304.771 1.585.494.387 1.234.562 1.939.562 1.055 0 2.289-.456 2.994-1.302.104-.107.947-1.162.947-3.203v-.951l-1.58.14zm15.978-9.469v6.724h5.666v-6.724h5.246v17.956h-5.246v-7.536h-5.666v7.536h-5.25v-17.956zm20.237 0v6.899h1.406c1.514 0 2.148-.742 2.535-1.551.74-1.583.705-2.815 1.375-4.045.531-.987 1.232-1.235 1.691-1.303h4.328c-.564.597-1.055 1.303-1.377 1.935-.561 1.161-1.09 3.062-1.404 3.872-.422 1.128-1.127 2.257-2.922 2.396v.066c.949.145 1.934.639 2.678 1.729.455.668.773 1.55 1.268 2.923l1.158 2.989c.355.815.563 1.305 1.162 2.045h-4.93c-.773-.248-1.303-.775-1.932-2.608l-.885-2.673-.246-.635c-.529-1.338-1.232-1.619-2.324-1.619h-1.582v7.535h-5.246v-17.956h5.247z" fill="#fff"/><path d="M211.582 298.848l8.067-7.93v-5.378l-8.067 7.886zm0-20.076l8.067-7.93v-5.078l-8.067 7.89zm0 6.642l8.067-7.93v-5.076l-8.067 7.887zm-2.31-19.587l-1.072-1.047v-12.555h-1.22v11.366l-1.063-1.044v-10.322h-1.216v9.134l-1.074-1.046v-8.088h-1.212v11.978l8.07 7.928v-19.906h-1.213zm2.31 26.229l8.067-7.928v-5.077l-8.067 7.887zm-9.166-1.138l8.069 7.931v-5.423l-8.069-7.885zm16.021-30.604l-1.068 1.045v-9.134h-1.223v10.325l-1.066 1.041v-11.366h-1.21v12.552l-1.075 1.049v-13.601h-1.212v19.906l8.065-7.928v-11.978h-1.211zm-16.021 10.528l8.069 7.931v-5.122l-8.069-7.887zm0 6.643l8.069 7.93v-5.12l-8.069-7.886zm0 6.643l8.069 7.928v-5.119l-8.069-7.885zm48.075 4.184h-19.623c.408-.647.651-1.408.651-2.233 0-2.333-1.898-4.228-4.234-4.228a4.23 4.23 0 0 0-4.224 4.228c0 .92.296 1.758.79 2.451a1.36 1.36 0 0 0-.612 1.132 1.35 1.35 0 0 0 .612 1.127 4.21 4.21 0 0 0-.79 2.454c0 2.335 1.891 4.228 4.224 4.228s4.234-1.893 4.234-4.228c0-.823-.243-1.585-.651-2.233h14.598v.885h-1.441v1.245h1.441v1.292h-1.441v2.375h1.441v-1.077h2.137v1.077h1.438v-2.375h-1.438v-1.292h1.438v-1.245h-1.438v-.885h2.889c.557 0 1.016-.468 1.016-1.035v-.628c-.002-.566-.461-1.035-1.017-1.035m-21.024 4.931c0 1.203-.979 2.179-2.183 2.179-1.198 0-2.179-.976-2.179-2.179a2.17 2.17 0 0 1 .358-1.198l.61-1.026a1.81 1.81 0 0 1 0-2.716l-.61-1.029a2.14 2.14 0 0 1-.358-1.195c0-1.201.98-2.179 2.179-2.179s2.183.978 2.183 2.179c0 .889-1.024 3.008-1.024 3.008v1.148s1.024 2.117 1.024 3.008" fill="#fc0" fill-rule="evenodd"/><g fill="#fff"><path fill-rule="evenodd" d="M195.076 285.743v5.268c0 5.039 2.195 8.274 3.458 9.536l8.349 8.211c2.334 2.28 2.742 3.037 3.262 4.334v-5.841c0-5.2-2.635-7.217-3.99-8.54l-6.987-6.812c-3.236-3.241-4.092-6.156-4.092-6.156m11.078 26.013l-6.986-6.82c-3.236-3.238-4.092-5.432-4.092-5.432v4.547c0 5.039 2.288 8.254 3.452 9.571l8.354 8.175c2.335 2.28 2.742 3.365 3.261 4.662v-6.169c0-5.2-2.635-7.217-3.989-8.534m16.639-49.774l-1.735.04v2.47l1.735-.043c18.651 0 33.776 15.122 33.776 33.777s-15.125 33.775-33.776 33.775c-18.659 0-33.782-15.123-33.782-33.775 0-10.353 4.66-19.617 11.994-25.812v-3.155c-8.781 6.616-14.457 17.129-14.457 28.967 0 20.014 16.226 36.24 36.245 36.24 20.013 0 36.238-16.227 36.238-36.24s-16.225-36.244-36.238-36.244m25.636 55.164l1.595-2.368v-4.865h-1.595v7.233z"/><path fill-rule="evenodd" d="M253.078 308.143l.612-2.117h-5.262v1.294h.8c1.403-.044 2.968-.06 3.85.823m-36.44-2.293h1.425v14.449h-1.425z"/><path fill-rule="evenodd" d="M213.352 303.06h4.71c1.218 0 2.066.253 2.563.726s.726 1.316.726 2.535v13.504c0 1.225-.229 2.07-.726 2.542-.748.746-2.12.746-3.265.746-.25-.022-.501-.022-.723-.022v6.399l1.424.247v-5.253c2.169 0 3.595-.741 4.259-2.224v7.822l.472.006.896-.012v-23.503c0-1.247.252-2.118.72-2.616s1.325-.744 2.521-.744c1.223 0 3.008-.179 3.934.744.476.498.697 1.369.697 2.616v6.923h-3.232V306.1h-1.398v23.721l1.398-.213v-14.715h3.232v13.971l1.97-.632v-12.789c0-1.446.347-2.54 1.823-3.037l-1.626-8.899h3.265l.545 9.721h.403l.546-9.721h3.44l-1.843 8.899c1.545.542 1.843 1.493 1.843 3.037v8.261a32.22 32.22 0 0 0 2.741-2.313v-17.955h9.563l.184-1.297h-22.382l.316 1.606c-.711-1.298-2.053-1.955-4.021-1.955h-1.398c-2.373 0-3.814.945-4.361 2.825-.507-1.97-2.009-2.95-4.506-2.95h-6.131v26.524l1.421.478V303.06zm29.719 10.212l-1.545-1.472 1.545-7.984v9.456zm-6.079 13.48l1.471-.779v-10.935h-1.471v11.714z"/></g><path d="M583.381 244.13h18.141v108.316h-18.141zm-30.236 0h12.094v108.316h-12.094z" fill="#157c2d"/><path fill="#6da025" d="M619.674 244.13h12.096v108.316h-12.096z"/><path d="M655.957 244.13h12.096v108.316h-12.096zm-54.436 0h6.047v108.316h-6.047z" fill="#b1c800"/><path fill="#245e2e" d="M571.287 244.13h6.047v108.316h-6.047z"/><path d="M643.863 244.13h6.047v108.316h-6.047zm36.287 0h6.047v108.316h-6.047z" fill="#fc0"/></svg>