<svg xmlns="http://www.w3.org/2000/svg" viewBox="0 0 200 50"  xmlns:v="https://vecta.io/nano"><path d="M90.5 19.5l3.8-2.8H81.7v16.6h12.6v-2.8h-9v-4.2h7.6v-2.8h-7.6v-4zm-15.7 0l3.8-2.8H64.2v16.6h7.5c4.2 0 6.6-1.9 6.6-5.2 0-3.2-2.2-4.9-6.2-4.9h-4.4v-3.7h7.1zm-3.2 6.4c2.3 0 3.3.8 3.3 2.3s-1.1 2.3-3.3 2.3h-3.8v-4.6h3.8zm32.8-9.2h-6.8v16.6h3.6v-4.7h3.3c4.4 0 7.1-2.3 7.1-6s-2.8-5.9-7.2-5.9zm0 9.1h-3.2v-6.4h3.2c2.3 0 3.6 1.1 3.6 3.2-.1 2.1-1.3 3.2-3.6 3.2zm-46.3 3.9c-1 .5-2 .8-3.1.8-3.2 0-5.6-2.3-5.6-5.5s2.3-5.5 5.6-5.5c1.2 0 2.3.4 3.3 1l2.6-1.9-.2-.2c-1.5-1.3-3.5-2-5.8-2-2.5 0-4.7.8-6.4 2.4-1.6 1.6-2.6 3.8-2.5 6.1 0 2.3.9 4.5 2.5 6.2 1.7 1.6 4 2.5 6.3 2.4 2.6 0 4.8-.9 6.4-2.5l-2.3-1.7-.8.4zM166 23.5h-7.7v-6.8h-3.6v16.6h3.6v-6.8h7.7v6.8h3.6V16.7H166zm-24.3-6.8l-7.2 16.6h3.6l1.4-3.3h7.6l1.4 3.3h3.8l-7-16.6h-3.6zm-1 10.5l2.8-6.7 2.6 6.7h-5.4zm41.9-2.5l6.5-8H185l-5.4 7.1h-2v-7.1H174v16.6h3.6v-6.7h2.3l5.5 6.7h4.6zM127 23.2h-4.4v-3.7h9.4v-2.8h-13v16.6h7.5c4.2 0 6.6-1.9 6.6-5.2.1-3.2-2.1-4.9-6.1-4.9zm-.6 7.4h-3.8V26h3.8c2.3 0 3.3.8 3.3 2.3.1 1.5-1.1 2.3-3.3 2.3zm-91.7-14c.7.8 1.2 1.8 1.7 2.7l-12.6 9.3-5.3-3.3v-4l5.3 3.3 10.9-8zm2.7 6l-3 2.2v.3c0 3.1-1.3 5.9-3.5 7.8l2.1 2.4c2.8-2.5 4.6-6.2 4.6-10.2 0-.9-.1-1.7-.2-2.5z" fill="#21a038"/><linearGradient id="A" gradientUnits="userSpaceOnUse" x1="23.461" y1="37.575" x2="31.476" y2="34.716"><stop offset=".123" stop-color="#a3cd39"/><stop offset=".285" stop-color="#86c339"/><stop offset=".869" stop-color="#21a038"/></linearGradient><path d="M31.3 32.5c-1.9 1.9-4.6 3.1-7.5 3.1h-.5l-.2 3.2h.7c3.8.0 7.3-1.6 9.8-4.1l-2.3-2.2z" fill="url(#A)"/><linearGradient id="B" gradientUnits="userSpaceOnUse" x1="13.902" y1="34.002" x2="23.23" y2="36.814"><stop offset=".132" stop-color="#f2e913"/><stop offset=".298" stop-color="#ebe716"/><stop offset=".531" stop-color="#d9e01f"/><stop offset=".802" stop-color="#bbd62d"/><stop offset=".983" stop-color="#a3cd39"/></linearGradient><path d="M23.8 35.7c-3.1.0-5.9-1.4-7.9-3.5l-2.4 2.1c2.5 2.8 6.2 4.6 10.3 4.6v-3.2z" fill="url(#B)"/><linearGradient id="C" gradientUnits="userSpaceOnUse" x1="14.138" y1="34.087" x2="12.216" y2="25.415"><stop offset=".144" stop-color="#f2e913"/><stop offset=".304" stop-color="#e7e518"/><stop offset=".582" stop-color="#cadb26"/><stop offset=".891" stop-color="#a3cd39"/></linearGradient><path d="M16.3 32.5c-1.9-1.9-3.1-4.6-3.1-7.5v-.6l-3.2-.1v.7c0 3.8 1.5 7.3 4 9.8l2.3-2.3z" fill="url(#C)"/><linearGradient id="D" gradientUnits="userSpaceOnUse" x1="11.758" y1="25.814" x2="14.524" y2="15.877"><stop offset=".07" stop-color="#a3cd39"/><stop offset=".26" stop-color="#81c55f"/><stop offset=".922" stop-color="#0fa8e0"/></linearGradient><path d="M13.2 25c0-3.1 1.4-5.9 3.5-7.9l-2.2-2.3C11.7 17.3 10 21 10 25h3.2z" fill="url(#D)"/><linearGradient id="E" gradientUnits="userSpaceOnUse" x1="14.312" y1="15.518" x2="24.156" y2="13.362"><stop offset=".059" stop-color="#0fa8e0"/><stop offset=".539" stop-color="#0099f9"/><stop offset=".923" stop-color="#0291eb"/></linearGradient><path d="M16.1 17.7c1.9-2 4.7-3.3 7.7-3.3h.5l.2-3.2h-.7c-3.9.0-7.4 1.6-10 4.3l2.3 2.2z" fill="url(#E)"/><linearGradient id="F" gradientUnits="userSpaceOnUse" x1="23.027" y1="12.824" x2="32.215" y2="14.699"><stop offset=".057" stop-color="#0291eb"/><stop offset=".79" stop-color="#0c8acb"/></linearGradient><path d="M23.8 14.4c2.2.0 4.3.7 6 1.9l2.7-2c-2.4-1.9-5.4-3.1-8.7-3.1v3.2z" fill="url(#F)"/></svg>