<svg xmlns="http://www.w3.org/2000/svg" width="146" height="18"  fill-rule="nonzero" xmlns:v="https://vecta.io/nano"><path d="M10.806.189v4.642H8.994c-2.288 0-4.132 1.832-4.132 4.105s1.843 4.105 4.132 4.105h1.812v4.642c4.132-.789 7.215-4.389 7.215-8.747 0-4.326-3.083-7.926-7.215-8.747" fill="#003791"/><path d="M8.994 14.495C5.911 14.495 3.4 12 3.4 8.937s2.511-5.558 5.594-5.558h.35V0h-.35C4.036 0 0 4.011 0 8.937c0 4.958 4.036 8.968 8.994 8.968h.35v-3.411h-.35zm21.74-2.432a4.06 4.06 0 0 1-2.574.916c-2.257 0-4.068-1.8-4.068-4.042s1.812-4.042 4.068-4.042c1.017 0 1.971.379 2.67 1.011l1.43-1.421a6.07 6.07 0 0 0-4.1-1.579c-3.369 0-6.07 2.716-6.07 6.032A6.08 6.08 0 0 0 28.159 15c1.557 0 2.956-.568 4.005-1.516l-1.43-1.421zm64.677-8.684L90.93 8.747l-4.513-5.368-.032.063v-.063h-1.812v11.116h1.812V6.347l4.545 5.368 4.481-5.242v8.021h1.78V3.379zM45.735 8.937c0 3.347-2.733 6.032-6.07 6.032-3.369 0-6.07-2.716-6.07-6.032s2.733-6.032 6.07-6.032 6.07 2.716 6.07 6.032m-2.034 0c0-2.242-1.812-4.042-4.068-4.042s-4.068 1.8-4.068 4.042 1.812 4.042 4.068 4.042 4.068-1.8 4.068-4.042m39.029 0c0 3.347-2.733 6.032-6.07 6.032-3.369 0-6.07-2.716-6.07-6.032s2.733-6.032 6.07-6.032c3.369 0 6.07 2.716 6.07 6.032m-2.002 0c0-2.242-1.812-4.042-4.068-4.042s-4.068 1.8-4.068 4.042 1.812 4.042 4.068 4.042c2.225 0 4.068-1.8 4.068-4.042M70.557 3.379H68.11l-4.608 4.674h-1.875V3.379h-1.78v11.116h1.78V9.853h1.843l4.608 4.642h2.415l-5.467-5.526z" fill="#ff4b5f"/><path d="M145.946 3.379h-2.415l-4.64 4.674h-1.875V3.379h-1.78v11.116h1.78V9.853h1.875l4.577 4.642h2.415l-5.435-5.526zM119.63 14.495h1.971l-4.926-11.116h-2.034l-4.926 11.116h1.971l1.081-2.4h5.784l1.081 2.4zm-6.07-4.168l2.098-4.674 2.098 4.674h-4.195z" fill="#003791"/><path d="M57.558 11.274c0-.916-.381-1.737-1.017-2.337.604-.6 1.017-1.421 1.017-2.337a3.22 3.22 0 0 0-3.21-3.221h0-6.547v11.147h6.547c1.78-.032 3.21-1.484 3.21-3.253zm-7.946-6.095h4.704a1.42 1.42 0 1 1 0 2.842h0-4.704V5.179zm4.704 7.547h0-4.704V9.853h4.736a1.44 1.44 0 0 1 1.43 1.421c-.032.789-.667 1.453-1.462 1.453z" fill="#ff4b5f"/><path d="M131.199 3.41v4.642h-6.515V3.41h-1.812v11.053h1.812v-4.61h6.515v4.611h1.812V3.41zm-22.121 7.864c0-1.768-1.462-3.221-3.242-3.221h0-4.704V5.179h6.865v-1.8H99.32v11.147h6.515c1.78-.032 3.242-1.484 3.242-3.253zm-3.242 1.453h0-4.704V9.853h4.704a1.44 1.44 0 0 1 1.43 1.421c0 .789-.636 1.453-1.43 1.453z" fill="#003791"/></svg>