<svg xmlns="http://www.w3.org/2000/svg" width="200" height="50" fill="none"  xmlns:v="https://vecta.io/nano"><path d="M79 9.73H55.15L56.88 5H80.7L79 9.73zm-.85 2.35H54.3l-1.72 4.72H76.4l1.75-4.72zm-2.58 7.05H51.73L50 23.85h23.8l1.77-4.72z" fill="#009fdf"/><path d="M135.73 35.65H140a3.69 3.69 0 0 0 1.803-.224c.572-.224 1.08-.587 1.477-1.056a4 4 0 0 0 .83-2.7 3.79 3.79 0 0 0-1.48-3.23 4.29 4.29 0 0 0-2.7-.68h-4.25v7.88l.05.01zm-5.63 4.75V12.08h18.43l-1.63 4.75h-11.17v6.27h4.55c3.68 0 5.58.88 6.9 2a8.39 8.39 0 0 1 2.169 3.045 8.38 8.38 0 0 1 .631 3.685 8.15 8.15 0 0 1-.781 3.921c-.581 1.222-1.457 2.28-2.549 3.079-1.78 1.23-3.63 1.58-7.4 1.58l-9.15-.01zm-16.33 0V16.83h-8.2v-4.75h22.75l-1.63 4.75h-7.25v23.6h-5.68l.01-.03zm-22.7-17h3.23a6.37 6.37 0 0 0 2-.15 3.12 3.12 0 0 0 2.15-3.23 2.86 2.86 0 0 0-2.15-3.15 7.75 7.75 0 0 0-2.15-.2h-3v6.73h-.08zm0 4.9v7.43H95a4.21 4.21 0 0 0 3-.83 3.69 3.69 0 0 0 1.21-2.9 4 4 0 0 0-.75-2.43c-.83-1.08-1.88-1.28-3.63-1.28h-3.75l-.01.01zm9.08-3v.1c.965.392 1.862.931 2.66 1.6.81.67 1.449 1.522 1.866 2.487s.6 2.014.534 3.063c0 3.88-2.05 6.68-5.43 7.5a14.29 14.29 0 0 1-4.13.4h-10.2V12.08h9.08a16.62 16.62 0 0 1 4.3.4c3.28.88 5.43 3.15 5.43 6.73.028.849-.118 1.694-.427 2.485s-.777 1.51-1.373 2.115a6.73 6.73 0 0 1-2.23 1.5h-.08v-.01z" fill="#0a2973"/></svg>